<?xml version="1.0" encoding="UTF-8" standalone="no"?>
<!DOCTYPE svg PUBLIC "-//W3C//DTD SVG 1.1//EN" "http://www.w3.org/Graphics/SVG/1.1/DTD/svg11.dtd">
<svg xmlns="http://www.w3.org/2000/svg" version="1.1" viewBox="0.00 0.00 235.00 37.00">
<path fill="#ffffff" d="
  M 125.91 25.76
  Q 125.50 25.95 125.05 26.00
  Q 124.51 26.05 124.39 25.53
  Q 124.08 24.22 123.33 23.17
  Q 123.01 22.74 123.51 22.54
  Q 126.45 21.38 128.85 19.36
  Q 129.86 18.51 128.54 18.50
  L 121.68 18.50
  Q 121.09 18.50 121.20 17.92
  L 121.43 16.59
  Q 121.54 15.98 122.16 15.98
  L 130.71 15.98
  A 1.37 1.34 -75.2 0 0 131.89 15.28
  L 132.11 14.88
  Q 132.46 14.26 131.74 14.26
  L 125.56 14.24
  Q 125.13 14.24 125.20 13.81
  L 125.55 11.80
  A 0.66 0.65 4.6 0 1 126.20 11.26
  L 133.25 11.25
  A 0.45 0.45 0.0 0 0 133.70 10.79
  L 133.69 10.46
  Q 133.68 9.99 133.20 9.99
  L 124.47 9.99
  A 0.32 0.32 0.0 0 1 124.15 9.61
  L 124.62 7.13
  Q 124.64 7.02 124.75 7.02
  L 133.94 7.02
  Q 134.40 7.02 134.48 6.56
  L 134.64 5.51
  A 0.60 0.60 0.0 0 1 135.23 5.00
  L 137.74 5.01
  Q 138.23 5.01 138.25 5.49
  L 138.29 6.43
  A 0.63 0.63 0.0 0 0 138.92 7.03
  L 147.98 7.02
  Q 148.33 7.01 148.34 7.36
  L 148.38 9.54
  A 0.43 0.42 89.3 0 1 147.96 9.98
  L 139.53 10.00
  Q 139.18 10.00 139.20 10.35
  L 139.23 10.72
  Q 139.26 11.25 139.80 11.25
  L 146.61 11.25
  Q 147.12 11.25 147.12 11.77
  L 147.12 13.82
  Q 147.12 14.25 146.68 14.25
  L 141.15 14.25
  Q 140.46 14.25 140.79 14.85
  L 141.11 15.43
  Q 141.41 15.97 142.03 15.97
  L 150.65 15.98
  Q 151.07 15.98 151.07 16.40
  L 151.06 18.10
  Q 151.05 18.50 150.65 18.50
  L 144.44 18.50
  Q 143.21 18.50 144.13 19.32
  Q 146.69 21.62 149.39 22.49
  A 0.43 0.43 0.0 0 1 149.62 23.14
  Q 148.93 24.22 148.58 25.53
  Q 148.43 26.10 147.85 26.04
  Q 147.46 26.00 147.11 25.84
  Q 146.48 25.55 146.49 26.23
  L 146.50 26.76
  Q 146.51 27.28 145.99 27.28
  L 142.53 27.29
  Q 140.69 27.30 142.22 28.32
  Q 144.80 30.05 147.53 31.00
  A 0.37 0.37 0.0 0 1 147.65 31.62
  Q 146.66 32.47 146.32 33.65
  Q 146.19 34.07 145.77 33.92
  Q 140.05 31.87 136.78 27.72
  A 0.46 0.46 0.0 0 0 136.06 27.72
  Q 132.75 31.92 127.66 33.85
  Q 127.13 34.05 126.79 33.60
  L 125.31 31.65
  Q 124.90 31.11 125.55 30.91
  Q 128.43 30.04 130.97 28.11
  Q 132.06 27.29 130.70 27.28
  L 127.00 27.28
  A 0.62 0.61 -3.2 0 1 126.40 26.75
  Q 126.36 26.49 126.45 26.24
  Q 126.77 25.35 125.91 25.76
  Z
  M 137.21 15.47
  Q 137.14 15.12 136.93 14.82
  Q 136.53 14.25 135.99 14.70
  Q 135.81 14.84 135.72 15.05
  Q 135.47 15.59 136.01 15.84
  Q 136.51 16.06 137.02 15.83
  A 0.33 0.32 -18.2 0 0 137.21 15.47
  Z
  M 133.40 20.49
  L 139.58 20.51
  A 0.15 0.15 0.0 0 0 139.73 20.36
  L 139.73 20.28
  A 1.80 1.79 0.2 0 0 137.93 18.49
  L 135.05 18.47
  A 1.80 1.79 0.2 0 0 133.25 20.26
  L 133.25 20.34
  A 0.15 0.15 0.0 0 0 133.40 20.49
  Z
  M 129.53 24.50
  L 131.91 24.51
  A 0.53 0.48 47.9 0 0 132.01 24.52
  Q 132.99 24.71 133.72 24.21
  Q 134.72 23.53 133.56 23.18
  Q 131.08 22.42 129.29 23.74
  Q 128.27 24.49 129.53 24.50
  Z
  M 143.89 24.13
  Q 141.98 22.25 139.12 23.13
  Q 138.66 23.27 138.78 23.73
  Q 138.83 23.94 138.96 24.11
  Q 139.28 24.51 139.78 24.51
  L 143.74 24.50
  Q 144.26 24.49 143.89 24.13
  Z"
/>
<path fill="#ffffff" d="
  M 51.27 13.24
  Q 51.04 13.45 50.97 13.76
  Q 50.84 14.35 50.23 14.40
  Q 49.90 14.43 49.63 14.22
  Q 49.17 13.85 49.47 13.35
  Q 50.38 11.84 50.99 10.17
  Q 51.27 9.39 50.44 9.44
  Q 50.26 9.45 50.09 9.38
  Q 49.38 9.06 49.89 8.46
  Q 50.29 8.00 50.91 7.97
  Q 51.52 7.95 51.37 7.36
  Q 51.14 6.47 51.50 5.59
  A 0.52 0.52 0.0 0 1 52.27 5.36
  Q 53.06 5.92 52.74 7.08
  Q 52.54 7.79 53.25 8.01
  L 54.00 8.24
  Q 54.68 8.45 54.71 7.74
  L 54.75 6.72
  Q 54.77 6.20 55.28 6.19
  L 55.72 6.19
  Q 56.07 6.18 56.12 6.53
  L 56.23 7.45
  A 0.36 0.35 77.0 0 0 56.69 7.74
  Q 56.86 7.68 56.94 7.51
  Q 57.19 6.94 56.85 6.37
  A 0.37 0.37 0.0 0 1 57.04 5.84
  Q 57.77 5.58 58.60 5.75
  A 0.40 0.40 0.0 0 1 58.87 6.33
  Q 58.65 6.74 58.65 7.25
  A 0.62 0.62 0.0 0 0 59.25 7.87
  L 61.50 7.95
  Q 61.80 7.96 61.79 8.25
  L 61.77 8.74
  Q 61.76 8.99 61.51 9.00
  L 59.33 9.06
  Q 58.73 9.07 58.66 9.67
  L 58.62 10.08
  Q 58.55 10.74 59.21 10.74
  L 61.89 10.75
  Q 62.27 10.75 62.27 11.13
  L 62.25 12.26
  Q 62.25 12.51 61.99 12.51
  L 60.02 12.49
  Q 59.38 12.49 59.73 13.01
  Q 60.75 14.54 62.25 15.21
  Q 62.85 15.47 62.44 15.99
  L 61.88 16.69
  A 0.59 0.59 0.0 0 1 60.97 16.70
  L 59.22 14.65
  Q 58.67 14.00 58.68 14.85
  L 58.72 17.75
  Q 58.73 18.28 58.21 18.29
  L 57.67 18.30
  Q 56.81 18.32 56.95 17.48
  Q 57.17 16.17 57.06 14.78
  Q 56.99 13.96 56.61 14.69
  Q 55.91 16.05 54.61 16.74
  A 0.78 0.76 57.6 0 1 53.63 16.51
  L 53.45 16.27
  A 0.53 0.53 0.0 0 1 53.56 15.54
  Q 54.69 14.67 55.81 13.60
  Q 57.01 12.44 55.35 12.47
  Q 54.30 12.48 53.27 12.60
  Q 52.77 12.65 52.77 13.15
  L 52.76 18.15
  Q 52.76 18.40 52.51 18.43
  L 52.19 18.47
  Q 51.48 18.55 51.37 17.85
  Q 51.01 15.70 51.57 13.42
  Q 51.72 12.83 51.27 13.24
  Z
  M 55.44 10.76
  L 56.38 10.78
  Q 57.25 10.80 57.18 9.93
  Q 57.14 9.45 56.81 9.10
  A 0.59 0.59 0.0 0 0 55.93 9.12
  L 55.13 10.06
  Q 54.55 10.74 55.44 10.76
  Z"
/>
<path fill="#ffffff" d="
  M 174.54 10.10
  L 169.18 10.12
  Q 168.74 10.12 168.83 9.68
  L 169.31 7.55
  A 0.65 0.65 0.0 0 1 169.96 7.03
  L 174.27 7.04
  Q 174.83 7.04 174.82 6.48
  L 174.82 5.96
  A 0.47 0.47 0.0 0 1 175.29 5.48
  L 177.85 5.49
  Q 178.46 5.49 178.52 6.10
  L 178.55 6.44
  Q 178.61 7.03 179.19 7.03
  L 184.27 7.03
  Q 185.15 7.03 185.11 7.90
  L 184.99 10.48
  A 0.49 0.49 0.0 0 0 185.48 10.99
  L 186.92 11.01
  Q 187.31 11.02 187.31 11.42
  L 187.30 13.66
  Q 187.30 14.12 186.84 14.15
  L 185.46 14.22
  Q 184.92 14.25 184.96 14.79
  L 185.16 17.27
  A 0.68 0.68 0.0 0 1 184.48 18.00
  L 178.97 18.06
  A 0.42 0.42 0.0 0 0 178.56 18.47
  L 178.55 18.72
  Q 178.54 18.92 178.74 18.92
  L 184.70 18.95
  Q 185.20 18.96 185.20 19.45
  L 185.21 21.51
  Q 185.21 21.99 184.74 21.99
  L 178.81 22.02
  Q 178.56 22.02 178.56 22.27
  L 178.55 22.57
  Q 178.55 23.00 178.99 23.01
  L 186.36 23.04
  A 0.48 0.48 0.0 0 1 186.83 23.59
  Q 186.65 24.76 186.85 25.88
  A 0.37 0.37 0.0 0 1 186.49 26.32
  L 179.25 26.35
  Q 178.59 26.35 178.57 27.00
  L 178.54 28.07
  A 0.61 0.60 1.0 0 1 177.93 28.65
  L 175.49 28.64
  Q 174.83 28.64 174.81 27.98
  L 174.78 26.91
  Q 174.76 26.31 174.16 26.32
  L 167.74 26.35
  Q 167.12 26.36 167.23 25.75
  L 167.61 23.54
  A 0.63 0.63 0.0 0 1 168.22 23.02
  L 174.56 23.00
  Q 174.91 22.99 174.93 22.64
  L 174.95 22.30
  Q 174.96 22.02 174.69 22.02
  L 169.30 21.99
  Q 168.34 21.99 168.54 21.05
  L 168.86 19.52
  Q 168.96 19.00 169.49 18.99
  L 174.76 18.87
  Q 174.91 18.86 174.91 18.71
  L 174.90 18.39
  A 0.33 0.32 89.1 0 0 174.58 18.07
  L 169.22 18.04
  Q 168.44 18.04 168.62 17.27
  L 168.99 15.68
  Q 169.14 15.03 169.82 15.02
  L 174.57 14.93
  Q 174.91 14.93 174.90 14.59
  L 174.90 14.29
  Q 174.90 14.09 174.71 14.09
  L 166.99 14.08
  Q 166.64 14.08 166.72 13.74
  L 167.22 11.49
  Q 167.32 11.05 167.77 11.05
  L 174.64 10.98
  Q 174.85 10.98 174.87 10.77
  L 174.89 10.47
  Q 174.91 10.10 174.54 10.10
  Z
  M 178.67 10.86
  Q 179.75 11.19 181.02 10.94
  A 0.38 0.38 0.0 0 0 181.05 10.21
  Q 179.97 9.89 178.68 10.26
  A 0.31 0.31 0.0 0 0 178.67 10.86
  Z
  M 181.09 14.87
  A 0.33 0.33 0.0 0 0 181.11 14.24
  Q 179.97 13.83 178.89 14.22
  Q 177.95 14.56 178.90 14.86
  Q 179.98 15.20 181.09 14.87
  Z"
/>
<path fill="#ffffff" d="
  M 28.70 27.06
  L 28.66 33.64
  A 0.38 0.38 0.0 0 1 28.28 34.02
  L 20.72 34.01
  Q 20.18 34.01 20.18 33.47
  L 20.25 24.51
  Q 20.26 24.01 19.76 24.01
  L 18.77 24.00
  Q 18.29 24.00 18.29 24.48
  L 18.32 28.15
  Q 18.32 28.88 17.60 28.88
  L 10.69 28.87
  Q 9.77 28.87 9.77 27.95
  L 9.77 11.50
  Q 9.77 10.52 10.75 10.52
  L 17.54 10.51
  Q 18.32 10.51 18.32 11.29
  L 18.29 15.01
  Q 18.29 15.73 19.01 15.73
  L 19.51 15.74
  Q 20.26 15.74 20.25 14.99
  L 20.18 5.81
  Q 20.18 5.49 20.49 5.49
  L 28.45 5.48
  Q 28.67 5.48 28.67 5.70
  L 28.68 12.21
  Q 28.69 13.02 29.33 12.53
  Q 30.17 11.90 30.67 11.04
  Q 30.97 10.52 31.56 10.52
  L 42.55 10.51
  Q 43.43 10.51 42.80 11.13
  L 34.40 19.36
  Q 34.05 19.71 34.40 20.05
  L 42.81 28.32
  Q 43.37 28.87 42.59 28.87
  L 32.02 28.88
  A 1.95 1.94 -20.6 0 1 30.56 28.22
  L 29.35 26.82
  Q 28.70 26.08 28.70 27.06
  Z
  M 26.78 22.94
  A 0.43 0.43 0.0 0 1 27.52 22.64
  L 31.27 26.43
  Q 31.87 27.04 32.73 27.03
  L 38.25 27.02
  Q 38.97 27.02 38.45 26.52
  L 31.74 19.94
  A 0.34 0.34 0.0 0 1 31.74 19.46
  L 38.70 12.61
  A 0.15 0.14 -67.2 0 0 38.60 12.36
  L 32.24 12.38
  Q 31.98 12.38 31.79 12.57
  L 27.67 16.64
  A 0.52 0.52 0.0 0 1 26.78 16.27
  L 26.84 7.57
  Q 26.84 7.04 26.32 7.04
  L 22.49 7.03
  Q 22.01 7.02 22.01 7.51
  L 22.03 15.99
  Q 22.03 17.00 21.01 17.00
  L 17.32 17.00
  A 0.68 0.67 0.4 0 1 16.64 16.32
  L 16.64 12.75
  Q 16.64 12.35 16.24 12.35
  L 12.29 12.38
  Q 11.71 12.39 11.71 12.96
  L 11.69 26.48
  Q 11.69 27.02 12.23 27.02
  L 16.26 27.02
  Q 16.64 27.02 16.64 26.64
  L 16.64 22.81
  A 0.56 0.55 -90.0 0 1 17.19 22.25
  L 21.51 22.25
  A 0.51 0.51 0.0 0 1 22.02 22.76
  L 22.02 31.71
  Q 22.02 32.24 22.56 32.24
  Q 26.26 32.24 26.29 32.24
  Q 26.84 32.23 26.84 31.69
  Q 26.79 27.25 26.78 22.94
  Z"
/>
<path fill="#ffffff" d="
  M 106.64 18.66
  Q 103.03 15.08 103.38 10.43
  A 0.46 0.45 2.9 0 0 102.93 9.94
  Q 100.34 9.94 99.85 9.98
  Q 99.62 10.00 99.63 10.44
  Q 99.71 14.25 99.62 18.09
  Q 99.61 18.74 100.26 18.73
  L 106.64 18.66
  Q 106.55 18.87 106.72 19.11
  A 0.59 0.59 0.0 0 1 106.83 19.51
  C 106.53 23.12 106.31 28.67 109.99 30.56
  A 0.71 0.71 0.0 0 0 111.02 29.99
  L 111.13 28.63
  Q 111.19 27.97 111.82 28.18
  L 113.74 28.83
  Q 114.28 29.01 114.26 29.58
  C 114.07 34.89 109.59 35.04 106.43 32.22
  Q 102.60 28.80 103.45 22.23
  Q 103.46 22.12 103.35 22.10
  Q 101.50 21.86 99.85 22.08
  Q 99.65 22.11 99.65 22.31
  L 99.66 33.67
  Q 99.66 34.00 99.32 34.01
  L 96.94 34.02
  Q 96.62 34.02 96.62 33.70
  L 96.63 22.44
  Q 96.63 22.00 96.19 22.00
  L 93.49 22.01
  Q 92.85 22.02 92.93 22.66
  Q 93.87 29.86 87.88 33.61
  Q 87.36 33.94 87.02 33.42
  Q 86.45 32.53 85.28 32.25
  Q 84.68 32.10 85.21 31.79
  Q 89.92 28.91 89.45 22.58
  Q 89.41 22.01 88.84 22.00
  L 85.50 21.99
  A 0.20 0.20 0.0 0 1 85.31 21.75
  L 86.00 18.97
  Q 86.06 18.75 86.28 18.75
  L 95.99 18.75
  Q 96.61 18.75 96.61 18.13
  L 96.64 10.22
  Q 96.64 9.99 96.41 9.99
  L 93.14 10.02
  Q 92.91 10.02 92.95 10.24
  Q 93.68 14.95 89.98 16.67
  A 2.86 2.86 0.0 0 1 87.66 16.72
  Q 86.61 16.28 85.53 15.88
  Q 84.03 15.33 85.60 15.06
  Q 89.66 14.35 89.50 10.51
  A 0.54 0.53 88.9 0 0 88.97 9.99
  L 85.51 9.98
  A 0.19 0.19 0.0 0 1 85.33 9.75
  L 85.99 6.98
  Q 86.04 6.75 86.28 6.76
  L 102.68 6.77
  Q 103.07 6.77 103.26 6.43
  Q 103.39 6.20 103.44 5.95
  Q 103.51 5.51 103.96 5.54
  L 106.50 5.75
  Q 106.84 5.78 106.82 6.12
  C 106.55 9.64 106.39 14.95 110.14 16.73
  Q 110.57 16.94 110.78 16.50
  Q 111.24 15.54 111.15 14.20
  A 0.14 0.14 0.0 0 1 111.34 14.06
  L 113.98 15.10
  Q 114.19 15.18 114.20 15.41
  Q 114.34 18.55 111.97 20.01
  Q 111.54 20.28 111.04 20.21
  Q 108.63 19.89 106.64 18.66
  Z"
/>
<path fill="#ffffff" d="
  M 71.52 12.06
  Q 70.71 12.81 69.56 12.48
  Q 69.26 12.40 69.23 12.71
  L 69.05 14.68
  Q 69.03 14.95 69.30 14.98
  Q 70.41 15.08 71.30 14.86
  A 0.38 0.38 0.0 0 1 71.77 15.20
  L 71.82 15.96
  Q 71.84 16.32 71.48 16.38
  L 65.33 17.30
  Q 64.68 17.39 64.73 16.75
  Q 64.74 16.60 64.81 16.46
  Q 65.03 16.00 65.54 15.99
  L 66.75 15.97
  Q 67.46 15.96 67.45 15.25
  L 67.43 12.99
  Q 67.43 12.55 66.99 12.52
  L 65.33 12.43
  A 0.44 0.43 8.7 0 1 64.93 11.89
  L 65.01 11.59
  Q 65.13 11.11 65.63 11.06
  Q 68.43 10.79 71.56 11.09
  Q 71.85 11.12 71.85 10.83
  L 71.89 9.48
  A 0.41 0.40 -89.3 0 0 71.49 9.06
  L 64.92 9.08
  Q 64.76 9.08 64.76 8.92
  L 64.73 8.25
  Q 64.72 7.98 65.00 7.98
  L 71.03 7.98
  Q 71.80 7.98 71.72 7.22
  L 71.63 6.36
  Q 71.58 5.87 72.08 5.89
  L 75.18 6.03
  Q 75.62 6.04 75.64 6.48
  Q 75.68 7.53 76.58 7.98
  Q 77.02 8.19 77.14 8.66
  Q 77.18 8.81 77.14 8.96
  Q 77.07 9.20 76.82 9.18
  L 74.05 8.98
  Q 73.52 8.94 73.49 9.47
  Q 73.31 13.05 75.04 15.64
  A 0.42 0.42 0.0 0 0 75.80 15.52
  Q 75.90 15.17 75.77 14.82
  Q 75.64 14.46 76.01 14.47
  L 76.95 14.50
  Q 77.29 14.50 77.30 14.84
  Q 77.36 16.35 76.45 17.48
  A 1.39 1.39 0.0 0 1 74.23 17.42
  Q 72.42 14.86 71.98 12.21
  Q 71.89 11.71 71.52 12.06
  Z
  M 74.30 7.06
  L 73.82 6.70
  Q 73.15 6.19 73.12 7.03
  Q 73.11 7.51 73.53 7.66
  Q 73.82 7.77 74.13 7.72
  Q 74.99 7.58 74.30 7.06
  Z"
/>
<path fill="#ffffff" d="
  M 196.65 8.95
  A 0.29 0.29 0.0 0 1 196.36 8.66
  L 196.35 7.67
  A 1.52 1.05 89.4 0 1 197.39 6.14
  L 205.33 6.06
  A 1.52 1.05 89.4 0 1 206.39 7.57
  L 206.40 8.56
  A 0.29 0.29 0.0 0 1 206.11 8.85
  L 196.65 8.95
  Z"
/>
<path fill="#ffffff" d="
  M 210.54 18.50
  L 222.97 18.50
  Q 223.62 18.50 223.45 19.13
  Q 222.11 24.11 219.07 27.70
  Q 218.80 28.02 219.16 28.23
  Q 222.03 29.99 224.95 30.58
  Q 225.48 30.69 225.07 31.03
  Q 223.74 32.11 223.15 33.54
  Q 222.97 33.99 222.50 33.85
  Q 219.02 32.83 216.34 30.79
  Q 215.95 30.50 215.54 30.76
  Q 212.42 32.79 208.97 33.92
  A 0.24 0.23 65.3 0 1 208.69 33.81
  L 207.07 30.88
  A 0.25 0.24 -21.7 0 1 207.23 30.52
  Q 209.98 29.84 212.45 28.27
  Q 213.07 27.88 212.53 27.38
  Q 211.01 25.98 209.99 24.10
  Q 209.48 23.17 210.49 22.88
  L 211.93 22.46
  Q 213.02 22.14 213.69 23.05
  L 215.41 25.40
  Q 215.83 25.96 216.22 25.39
  L 218.50 22.13
  Q 218.93 21.50 218.17 21.50
  L 208.26 21.50
  Q 207.78 21.50 207.80 21.03
  Q 207.84 19.65 208.66 18.61
  A 0.82 0.82 0.0 0 0 208.54 17.47
  L 207.48 16.59
  Q 206.81 16.04 207.45 15.45
  Q 210.77 12.35 209.88 6.87
  A 0.65 0.65 0.0 0 1 210.52 6.12
  L 219.94 6.13
  Q 220.50 6.13 220.50 6.69
  L 220.49 13.48
  A 0.45 0.45 0.0 0 0 220.93 13.93
  L 221.26 13.93
  A 0.61 0.60 -86.4 0 0 221.87 13.39
  L 222.15 10.85
  A 0.22 0.22 0.0 0 1 222.48 10.69
  L 225.03 12.31
  Q 225.24 12.45 225.24 12.71
  Q 225.25 14.99 223.85 16.36
  Q 223.46 16.75 222.91 16.81
  C 221.06 16.99 217.13 17.42 216.92 14.72
  Q 216.71 11.95 216.91 9.64
  A 0.52 0.51 -87.4 0 0 216.41 9.08
  L 213.81 8.99
  Q 213.41 8.98 213.41 9.38
  Q 213.43 12.43 212.37 15.20
  C 211.94 16.32 211.02 16.97 210.25 17.85
  Q 209.68 18.50 210.54 18.50
  Z"
/>
<path fill="#ffffff" d="
  M 112.25 10.39
  Q 113.18 10.71 113.91 11.26
  Q 114.43 11.66 113.92 12.08
  L 112.67 13.11
  Q 112.20 13.49 111.68 13.18
  L 107.82 10.85
  Q 107.48 10.65 107.56 10.26
  Q 107.88 8.60 109.44 8.53
  Q 110.02 8.51 110.29 8.00
  L 110.85 6.92
  Q 111.18 6.31 111.79 6.62
  L 113.75 7.58
  Q 114.28 7.84 113.83 8.21
  L 112.11 9.64
  Q 111.51 10.13 112.25 10.39
  Z"
/>
<path fill="#ffffff" d="
  M 164.47 15.56
  L 167.50 15.17
  A 0.40 0.38 -2.6 0 1 167.94 15.56
  C 167.89 18.25 167.85 22.90 166.46 25.28
  A 1.76 1.76 0.0 0 0 167.41 27.84
  C 173.52 29.91 181.04 29.79 187.41 29.24
  Q 187.83 29.20 187.62 29.57
  Q 186.85 30.97 186.55 32.53
  Q 186.48 32.93 186.07 32.94
  Q 179.89 33.18 172.95 32.79
  Q 168.55 32.55 164.87 30.31
  A 0.60 0.59 -61.0 0 0 164.04 30.55
  Q 163.14 32.33 161.35 33.65
  Q 161.02 33.89 160.76 33.58
  Q 159.79 32.44 158.37 31.76
  A 0.28 0.28 0.0 0 1 158.33 31.27
  Q 160.15 30.01 161.49 28.07
  Q 161.79 27.63 161.55 27.16
  L 158.89 21.93
  Q 158.65 21.45 159.15 21.27
  L 161.24 20.52
  A 0.54 0.54 0.0 0 1 161.91 20.78
  L 162.97 22.91
  Q 163.38 23.74 163.57 22.83
  L 164.28 19.31
  Q 164.39 18.75 163.82 18.75
  L 159.30 18.74
  A 0.45 0.44 12.2 0 1 158.89 18.11
  L 162.18 10.99
  Q 162.46 10.40 161.80 10.38
  L 158.77 10.33
  Q 158.60 10.33 158.60 10.17
  L 158.60 7.32
  Q 158.60 6.98 158.94 6.98
  L 166.76 6.82
  Q 167.37 6.81 167.18 7.39
  Q 165.75 11.58 164.06 14.99
  Q 163.73 15.65 164.47 15.56
  Z"
/>
<path fill="#ffffff" d="
  M 22.96 20.50
  L 15.47 20.50
  A 0.41 0.41 0.0 0 0 15.06 20.91
  L 15.11 25.53
  A 0.41 0.41 0.0 0 1 14.70 25.94
  L 13.66 25.96
  A 0.41 0.41 0.0 0 1 13.25 25.55
  L 13.24 14.35
  A 0.41 0.41 0.0 0 1 13.66 13.94
  L 14.71 13.97
  A 0.41 0.41 0.0 0 1 15.11 14.38
  L 15.09 18.20
  A 0.41 0.41 0.0 0 0 15.50 18.61
  L 22.96 18.63
  A 0.41 0.41 0.0 0 0 23.37 18.22
  L 23.37 9.05
  A 0.41 0.41 0.0 0 1 23.77 8.64
  L 24.85 8.63
  A 0.41 0.41 0.0 0 1 25.27 9.04
  L 25.28 30.10
  A 0.41 0.41 0.0 0 1 24.88 30.51
  L 23.79 30.53
  A 0.41 0.41 0.0 0 1 23.37 30.12
  L 23.37 20.91
  A 0.41 0.41 0.0 0 0 22.96 20.50
  Z"
/>
<rect fill="#ffffff" x="195.13" y="10.51" width="12.74" height="2.50" rx="0.52"/>
<path fill="#ffffff" d="
  M 29.69 20.06
  L 35.03 25.19
  Q 35.69 25.82 34.78 25.93
  L 34.22 25.99
  Q 33.24 26.10 32.53 25.41
  L 27.06 20.08
  Q 26.64 19.67 27.06 19.26
  L 31.97 14.49
  A 1.83 1.81 -66.7 0 1 33.23 13.98
  Q 33.95 13.99 34.64 13.96
  Q 35.30 13.93 34.82 14.39
  Q 32.32 16.80 29.69 19.31
  Q 29.30 19.68 29.69 20.06
  Z"
/>
<path fill="#ffffff" d="
  M 197.26 15.00
  L 205.98 15.01
  A 0.37 0.37 0.0 0 1 206.35 15.38
  L 206.38 17.62
  A 0.37 0.37 0.0 0 1 206.01 17.99
  L 196.44 18.00
  A 0.37 0.37 0.0 0 1 196.09 17.50
  L 196.91 15.24
  A 0.37 0.37 0.0 0 1 197.26 15.00
  Z"
/>
<path fill="#ffffff" d="
  M 205.90 22.48
  L 196.61 22.50
  A 0.47 0.47 0.0 0 1 196.18 21.86
  L 196.86 20.06
  A 0.47 0.47 0.0 0 1 197.30 19.76
  L 205.83 19.74
  A 0.47 0.47 0.0 0 1 206.30 20.19
  L 206.37 21.99
  A 0.47 0.47 0.0 0 1 205.90 22.48
  Z"
/>
<path fill="#ffffff" d="
  M 112.23 24.30
  L 113.95 25.30
  Q 114.49 25.61 114.01 26.01
  L 112.67 27.09
  Q 112.18 27.49 111.63 27.17
  L 107.90 24.96
  Q 107.41 24.67 107.57 24.12
  Q 108.01 22.62 109.49 22.53
  Q 110.05 22.50 110.27 21.99
  Q 110.49 21.47 110.89 21.09
  Q 111.41 20.59 112.11 20.80
  Q 113.06 21.09 113.78 21.72
  A 0.36 0.35 -44.5 0 1 113.77 22.26
  L 112.17 23.62
  Q 111.72 24.00 112.23 24.30
  Z"
/>
<path fill="#ffffff" d="
  M 56.64 21.27
  C 58.31 23.00 60.01 24.43 62.39 25.13
  Q 63.07 25.33 62.61 25.87
  L 62.15 26.41
  Q 61.75 26.88 61.19 26.61
  C 60.03 26.05 58.59 26.55 57.29 26.53
  Q 54.05 26.47 50.52 26.47
  Q 50.03 26.47 49.68 26.16
  Q 49.48 25.99 49.44 25.73
  A 0.58 0.57 -14.2 0 1 49.83 25.09
  Q 53.12 23.99 54.90 21.41
  A 1.13 1.13 0.0 0 1 56.64 21.27
  Z
  M 56.27 23.03
  A 0.38 0.38 0.0 0 0 55.68 22.97
  L 54.14 24.52
  Q 53.65 25.02 54.35 25.02
  L 57.74 25.01
  Q 58.68 25.01 57.87 24.53
  Q 56.87 23.93 56.27 23.03
  Z"
/>
<path fill="#ffffff" d="
  M 68.10 29.38
  L 68.14 33.50
  Q 68.14 33.90 67.75 33.95
  L 67.24 34.03
  Q 66.62 34.11 66.64 33.49
  L 66.72 29.75
  Q 66.74 28.86 66.11 29.49
  Q 65.76 29.83 65.30 30.06
  Q 65.11 30.15 65.03 29.96
  L 64.60 28.92
  Q 64.50 28.69 64.70 28.55
  Q 66.24 27.45 67.48 25.90
  Q 68.46 24.67 66.89 24.74
  Q 66.47 24.75 66.05 24.73
  Q 63.66 24.63 65.42 23.07
  Q 65.69 22.82 66.09 22.97
  Q 66.77 23.23 66.71 22.50
  L 66.62 21.59
  Q 66.57 21.01 67.16 21.01
  L 67.77 21.01
  Q 68.29 21.01 68.22 21.52
  L 68.09 22.51
  A 0.51 0.51 0.0 0 0 68.68 23.08
  Q 69.86 22.90 69.86 24.08
  Q 69.86 24.68 70.42 24.87
  Q 71.24 25.15 72.10 24.95
  Q 72.49 24.86 72.47 24.46
  L 72.33 21.48
  Q 72.31 21.02 72.77 21.02
  L 73.56 21.01
  Q 74.11 21.01 74.09 21.56
  L 73.98 24.49
  A 0.50 0.49 -90.0 0 0 74.49 25.01
  L 76.48 24.95
  Q 77.03 24.93 77.00 25.48
  L 76.97 26.04
  Q 76.94 26.52 76.46 26.51
  L 74.78 26.49
  Q 74.05 26.48 74.04 27.22
  L 74.00 31.34
  Q 73.99 31.93 74.59 31.94
  L 77.08 31.95
  Q 77.46 31.95 77.47 32.33
  L 77.47 32.73
  Q 77.48 33.10 77.10 33.10
  L 69.68 33.09
  Q 69.26 33.09 69.35 32.68
  L 69.45 32.23
  Q 69.50 31.97 69.77 31.97
  L 71.87 31.93
  Q 72.42 31.92 72.42 31.37
  L 72.42 27.08
  Q 72.42 26.48 71.83 26.49
  L 70.57 26.51
  Q 70.05 26.52 69.76 26.08
  Q 69.66 25.93 69.63 25.74
  Q 69.47 24.90 69.13 25.69
  Q 68.99 26.02 68.89 26.37
  Q 68.79 26.73 68.92 27.05
  Q 69.23 27.84 70.06 28.13
  Q 70.55 28.30 70.46 28.80
  Q 70.37 29.30 69.95 29.64
  Q 69.42 30.07 69.09 29.47
  Q 68.98 29.26 68.82 29.09
  Q 68.09 28.34 68.10 29.38
  Z"
/>
<path fill="#ffffff" d="
  M 206.3542 32.6837
  A 0.32 0.32 0.0 0 1 206.0353 33.0048
  L 197.3354 33.0352
  A 0.32 0.32 0.0 0 1 197.0142 32.7163
  L 196.9858 24.5763
  A 0.32 0.32 0.0 0 1 197.3047 24.2552
  L 206.0046 24.2248
  A 0.32 0.32 0.0 0 1 206.3258 24.5437
  L 206.3542 32.6837
  Z
  M 203.5350 27.1634
  A 0.30 0.30 0.0 0 0 203.2340 26.8644
  L 200.0340 26.8756
  A 0.30 0.30 0.0 0 0 199.7350 27.1766
  L 199.7450 30.0366
  A 0.30 0.30 0.0 0 0 200.0460 30.3356
  L 203.2460 30.3244
  A 0.30 0.30 0.0 0 0 203.5450 30.0234
  L 203.5350 27.1634
  Z"
/>
<path fill="#ffffff" d="
  M 58.77 29.70
  Q 59.80 30.68 60.97 31.86
  Q 61.34 32.23 61.36 32.70
  Q 61.39 33.29 60.93 33.75
  Q 60.53 34.16 60.30 33.63
  Q 60.09 33.16 59.63 32.93
  Q 59.28 32.75 58.89 32.77
  Q 54.73 33.02 50.75 33.53
  A 0.53 0.53 0.0 0 1 50.15 33.07
  L 50.11 32.80
  Q 50.02 32.14 50.69 32.13
  Q 52.67 32.11 53.52 29.68
  Q 53.74 29.06 53.07 29.05
  L 50.20 29.03
  Q 49.86 29.03 49.91 28.70
  L 49.99 28.23
  Q 50.02 27.99 50.27 27.99
  L 61.70 27.98
  Q 61.93 27.98 61.95 28.21
  L 61.99 28.65
  Q 62.02 29.07 61.60 29.06
  L 59.04 29.04
  Q 58.06 29.03 58.77 29.70
  Z
  M 57.50 30.45
  Q 57.54 29.89 57.99 29.56
  Q 58.49 29.19 57.89 29.05
  Q 55.18 28.43 54.45 31.42
  Q 54.29 32.07 54.96 31.99
  L 57.63 31.70
  Q 57.85 31.68 57.95 31.49
  Q 58.06 31.28 57.90 31.18
  Q 57.46 30.94 57.50 30.45
  Z"
/>
</svg>
