<?xml version="1.0" encoding="UTF-8" standalone="no"?>
<!DOCTYPE svg PUBLIC "-//W3C//DTD SVG 1.1//EN" "http://www.w3.org/Graphics/SVG/1.1/DTD/svg11.dtd">
<svg xmlns="http://www.w3.org/2000/svg" version="1.1" viewBox="0.00 0.00 550.00 550.00">
<path fill="#eb2f74" d="
  M 342.40 371.56
  L 340.97 373.59
  Q 340.43 374.34 341.35 374.47
  L 341.74 374.52
  Q 342.31 374.60 342.47 375.16
  Q 343.13 377.47 343.48 380.00
  Q 347.03 405.32 345.41 428.77
  Q 345.12 433.01 345.78 436.74
  C 348.01 449.25 350.13 462.65 347.48 474.91
  Q 347.35 475.52 347.59 476.10
  Q 351.58 485.63 349.08 494.91
  Q 348.27 497.90 344.76 497.95
  Q 339.84 498.03 334.40 498.05
  C 328.34 498.08 324.92 502.32 319.84 504.60
  C 307.88 509.96 295.75 505.33 283.86 502.29
  Q 283.31 502.15 283.14 501.60
  C 282.02 497.91 281.89 490.35 286.39 488.39
  Q 300.39 482.29 312.01 475.61
  C 314.92 473.94 313.08 466.29 312.22 463.78
  Q 307.43 449.74 304.83 434.56
  Q 303.84 428.76 303.62 423.26
  C 303.18 411.83 301.72 400.48 300.50 388.98
  Q 298.94 374.24 295.97 363.34
  C 294.47 357.83 293.38 350.05 295.09 345.14
  Q 296.21 341.91 296.90 338.64
  C 300.56 321.37 303.51 303.81 306.76 286.68
  C 308.27 278.79 310.82 271.10 310.49 263.30
  Q 310.18 255.80 309.72 246.69
  Q 309.69 246.09 309.15 246.35
  Q 300.64 250.49 292.21 255.29
  C 287.52 257.95 285.72 263.74 284.31 268.67
  Q 284.16 269.20 284.62 269.51
  L 288.77 272.35
  Q 289.13 272.60 289.07 273.04
  Q 288.50 277.24 285.61 280.01
  Q 284.01 281.55 282.77 283.48
  C 275.57 294.72 266.76 302.42 255.79 310.23
  C 252.62 312.49 250.26 315.02 248.31 318.40
  Q 208.91 386.79 170.84 452.54
  Q 170.61 452.95 170.80 453.39
  Q 172.88 458.10 171.38 463.43
  A 1.00 1.00 0.0 0 0 171.60 464.37
  L 186.42 480.53
  Q 186.77 480.91 186.44 481.30
  Q 179.01 490.32 169.80 502.96
  Q 167.68 505.88 162.74 510.87
  C 149.40 524.37 134.92 526.83 118.45 517.67
  A 2.25 2.18 -89.1 0 1 117.52 516.68
  Q 107.45 495.31 116.24 475.42
  C 118.88 469.44 122.23 463.90 125.96 458.57
  Q 133.42 447.88 140.70 436.91
  Q 141.01 436.45 141.44 436.81
  L 156.30 449.31
  Q 156.68 449.63 157.16 449.55
  L 161.35 448.89
  A 1.13 1.12 9.0 0 0 162.17 448.30
  C 166.50 440.23 169.82 431.54 174.46 423.50
  Q 207.33 366.61 238.86 311.97
  C 241.59 307.24 242.07 300.55 242.47 295.21
  Q 243.87 276.58 250.51 264.35
  Q 251.62 262.31 251.85 260.17
  C 252.12 257.62 253.94 254.17 256.66 253.33
  Q 257.08 253.20 257.48 253.40
  L 261.41 255.39
  Q 261.85 255.61 262.19 255.25
  Q 283.25 233.07 307.34 213.02
  Q 307.84 212.60 307.82 211.96
  Q 307.19 189.30 311.05 169.99
  C 313.82 156.15 318.92 143.25 329.94 133.99
  Q 330.36 133.64 330.03 133.20
  L 325.41 127.10
  A 0.58 0.58 0.0 0 0 324.37 127.39
  Q 324.30 127.98 323.69 128.25
  A 0.80 0.76 -46.7 0 1 323.19 128.28
  L 318.70 126.98
  Q 317.97 126.77 317.74 126.05
  Q 317.49 125.28 316.54 125.25
  C 312.38 125.13 313.13 120.81 313.26 118.13
  C 313.32 116.98 312.66 116.10 311.81 115.42
  A 0.94 0.94 0.0 0 1 311.48 114.41
  Q 311.80 113.37 312.54 112.54
  Q 313.09 111.92 312.35 111.55
  Q 309.68 110.23 311.54 107.16
  A 2.25 2.25 0.0 0 0 310.24 103.83
  C 307.41 103.03 304.89 100.49 307.56 97.58
  C 311.11 93.70 313.56 91.01 313.71 85.14
  A 0.78 0.77 9.2 0 0 313.15 84.37
  C 309.96 83.39 306.51 82.54 303.89 80.45
  A 1.00 1.00 0.0 0 1 304.28 78.70
  Q 307.45 77.93 310.79 78.18
  Q 311.58 78.24 312.02 77.58
  Q 316.83 70.29 321.88 61.06
  Q 325.52 54.39 334.09 53.39
  C 353.39 51.12 375.12 61.82 375.49 83.75
  Q 375.66 93.26 371.18 104.21
  Q 370.98 104.72 370.46 104.53
  L 368.48 103.77
  Q 367.96 103.58 367.64 104.02
  C 364.95 107.76 361.63 110.98 360.12 115.41
  A 1.09 1.09 0.0 0 0 360.28 116.39
  Q 364.60 122.29 367.29 128.71
  Q 367.49 129.19 367.93 129.48
  Q 381.58 138.66 391.94 148.05
  C 394.50 150.38 395.75 152.73 396.47 156.22
  Q 398.13 164.21 399.00 173.15
  Q 402.05 204.57 399.27 236.05
  Q 397.65 254.43 392.55 270.89
  Q 391.89 273.05 392.17 275.41
  Q 395.23 301.10 396.05 329.00
  Q 396.57 346.81 397.37 364.40
  Q 397.47 366.73 397.83 369.02
  Q 397.90 369.52 398.25 369.89
  Q 400.54 372.26 401.15 375.91
  Q 402.37 383.30 403.38 390.44
  C 403.79 393.36 404.45 396.49 406.57 398.67
  Q 415.90 408.24 423.83 421.24
  Q 435.42 440.25 442.88 460.98
  Q 443.07 461.53 443.57 461.83
  Q 449.55 465.49 452.94 471.04
  Q 455.02 474.45 452.07 477.36
  Q 448.54 480.84 445.23 484.23
  C 441.54 488.02 441.30 492.54 440.05 497.36
  C 436.73 510.18 423.25 516.99 412.37 523.01
  Q 411.75 523.35 411.14 523.00
  C 407.88 521.09 402.80 516.11 404.27 511.80
  Q 409.05 497.78 412.81 483.58
  Q 412.95 483.06 412.52 482.73
  Q 408.95 480.01 406.72 477.11
  Q 396.88 464.34 386.58 447.95
  Q 373.21 426.68 359.65 404.95
  C 356.87 400.50 353.06 396.32 350.95 391.79
  Q 346.75 382.77 343.13 371.66
  Q 342.88 370.88 342.40 371.56
  Z
  M 257.82 280.01
  C 256.03 275.58 255.47 271.41 254.84 266.78
  Q 254.70 265.74 254.29 266.71
  C 250.70 275.09 247.45 283.70 248.05 292.66
  C 248.36 297.34 249.06 302.10 248.13 306.80
  Q 247.99 307.52 248.61 307.12
  Q 252.71 304.43 256.97 302.09
  C 265.89 297.20 272.70 290.04 278.72 281.21
  Q 279.05 280.73 278.47 280.73
  L 275.30 280.76
  Q 274.81 280.76 274.44 281.07
  Q 270.60 284.26 266.36 280.58
  Q 266.02 280.28 265.59 280.39
  Q 261.90 281.33 258.66 280.70
  A 1.15 1.13 -5.2 0 1 257.82 280.01
  Z"
/>
</svg>
