<?xml version="1.0" encoding="UTF-8" standalone="no"?>
<!DOCTYPE svg PUBLIC "-//W3C//DTD SVG 1.1//EN" "http://www.w3.org/Graphics/SVG/1.1/DTD/svg11.dtd">
<svg xmlns="http://www.w3.org/2000/svg" version="1.1" viewBox="0.00 0.00 579.00 1128.00">
<path fill="#be2ad1" d="
  M 347.22 941.86
  Q 346.82 944.51 346.34 947.16
  C 344.18 958.84 336.60 966.67 326.68 972.95
  Q 326.12 973.31 326.21 973.97
  C 328.31 990.34 331.18 1006.43 332.88 1022.74
  Q 334.59 1039.08 333.46 1052.91
  C 332.31 1066.98 327.82 1080.04 316.17 1088.47
  Q 309.76 1093.10 302.80 1092.66
  C 286.42 1091.64 282.51 1069.05 280.11 1056.68
  Q 278.07 1046.20 278.03 1037.74
  Q 277.98 1027.70 278.41 1013.38
  Q 278.72 1003.02 277.17 992.27
  Q 275.31 979.45 266.48 970.12
  C 261.48 964.85 256.15 959.90 251.53 954.40
  C 249.05 951.45 246.59 948.42 243.90 945.66
  Q 239.47 941.11 234.91 936.07
  C 229.09 929.63 223.06 919.26 226.02 910.49
  C 227.96 904.75 229.04 899.40 225.18 894.07
  C 222.66 890.60 219.06 886.80 217.27 883.36
  C 211.60 872.44 213.75 861.39 219.70 851.03
  Q 223.46 844.50 226.12 838.43
  Q 229.80 830.06 229.24 819.20
  Q 228.67 808.16 227.82 795.81
  C 226.95 783.18 228.65 769.37 234.70 757.57
  Q 235.65 755.72 234.05 757.04
  L 227.67 762.30
  Q 227.26 762.63 226.88 762.26
  L 200.34 735.72
  A 0.59 0.59 0.0 0 1 200.23 735.04
  L 209.42 716.65
  A 2.66 2.63 89.0 0 1 210.52 715.50
  L 226.70 706.51
  Q 227.17 706.25 227.37 705.76
  L 244.24 664.49
  Q 244.49 663.88 244.32 663.24
  L 238.83 643.18
  Q 238.69 642.68 239.06 642.32
  L 248.06 633.31
  A 0.92 0.92 0.0 0 1 249.42 633.38
  Q 249.66 633.68 249.99 633.86
  Q 250.68 634.24 250.25 633.59
  Q 243.18 622.75 244.01 609.49
  Q 244.37 603.90 244.84 597.14
  Q 245.36 589.72 247.97 584.14
  C 251.77 575.97 261.06 572.58 269.24 575.99
  C 271.72 577.02 274.09 576.64 276.52 577.74
  Q 277.27 578.08 277.27 577.26
  Q 277.38 565.01 275.07 551.75
  Q 271.91 533.59 268.58 514.76
  C 265.85 499.28 262.93 484.09 260.55 468.52
  Q 257.92 451.27 258.26 433.87
  Q 258.27 433.24 257.68 433.46
  C 249.55 436.51 242.59 441.63 235.16 446.03
  C 220.08 454.97 203.92 445.03 193.70 434.04
  Q 186.65 426.45 180.85 418.10
  Q 168.82 400.77 158.22 384.94
  Q 148.18 369.96 140.91 354.34
  C 139.08 350.40 137.39 346.10 136.13 341.89
  Q 135.53 339.89 134.15 338.41
  Q 84.52 285.47 34.29 231.86
  A 0.37 0.37 0.0 0 1 34.30 231.33
  L 41.82 223.80
  A 0.25 0.24 -40.6 0 1 42.18 223.82
  L 53.21 238.52
  Q 53.62 239.08 54.16 238.63
  L 64.61 229.89
  A 0.46 0.45 53.0 0 0 64.69 229.29
  L 49.60 206.63
  A 0.10 0.09 73.8 0 1 49.68 206.48
  Q 52.02 206.54 55.48 207.03
  Q 55.69 207.06 55.82 207.22
  L 64.22 217.47
  A 1.49 1.48 -16.9 0 0 65.22 218.00
  L 71.25 218.56
  Q 71.72 218.60 72.04 218.96
  L 77.21 224.69
  A 0.31 0.31 0.0 0 0 77.63 224.72
  L 235.69 94.17
  Q 236.07 93.86 235.82 93.44
  L 220.30 66.74
  Q 219.96 66.16 220.44 65.69
  L 222.25 63.87
  Q 222.75 63.37 223.20 63.91
  L 237.24 80.37
  Q 237.61 80.81 238.09 80.50
  L 259.49 66.44
  A 0.46 0.45 -33.5 0 0 259.62 65.82
  L 249.16 49.85
  A 0.45 0.44 -36.9 0 1 249.25 49.26
  L 258.42 41.85
  Q 258.80 41.54 259.14 41.90
  L 409.95 198.57
  Q 410.52 199.16 411.27 198.81
  C 420.48 194.44 429.33 187.92 437.64 182.94
  Q 455.33 172.34 474.30 176.14
  Q 492.27 179.74 502.72 196.77
  Q 514.94 216.69 510.94 241.81
  C 509.59 250.35 505.59 256.05 500.74 262.76
  C 497.89 266.71 496.93 270.95 497.39 275.84
  Q 497.71 279.27 497.61 282.57
  Q 497.60 283.05 497.95 283.39
  L 512.82 297.48
  A 0.56 0.55 40.1 0 1 512.89 298.21
  L 499.26 316.80
  Q 498.97 317.20 499.20 317.63
  L 507.43 332.86
  Q 508.39 334.63 506.87 333.32
  L 494.14 322.35
  A 0.79 0.78 43.8 0 0 493.10 322.37
  L 484.42 330.52
  A 1.42 1.37 75.2 0 0 484.01 331.26
  L 482.96 336.66
  Q 482.85 337.21 482.48 337.61
  L 477.21 343.22
  A 0.53 0.53 0.0 0 0 477.25 343.99
  Q 484.14 349.69 491.35 355.95
  C 497.86 361.59 503.78 368.22 506.02 376.25
  Q 508.89 386.53 509.90 396.72
  Q 511.42 412.08 510.93 426.21
  Q 509.97 453.33 509.78 469.59
  Q 509.67 479.27 510.99 491.48
  C 511.89 499.87 514.24 507.35 516.09 515.42
  Q 518.09 524.22 516.62 532.45
  C 515.61 538.07 513.09 543.32 511.03 548.75
  C 508.25 556.07 508.47 563.92 510.66 571.58
  Q 514.07 583.54 517.02 594.21
  Q 519.35 602.62 518.95 610.72
  C 518.61 617.69 515.50 623.26 511.90 629.09
  C 508.96 633.85 507.54 639.80 507.73 645.44
  Q 507.88 649.80 507.69 653.91
  Q 507.37 660.74 504.55 670.73
  Q 500.45 685.32 495.51 701.72
  Q 495.31 702.36 494.65 702.27
  Q 492.10 701.95 489.72 700.89
  C 480.17 696.66 471.47 689.73 463.67 682.60
  Q 463.20 682.17 463.07 682.79
  Q 460.87 693.13 461.16 699.44
  Q 461.43 705.47 463.57 714.39
  Q 466.08 724.83 467.97 735.25
  C 469.32 742.66 469.16 750.13 468.62 757.71
  Q 467.95 767.04 469.01 774.50
  C 470.35 783.98 472.16 794.11 472.46 803.17
  Q 473.00 818.96 468.56 836.47
  Q 465.49 848.55 461.84 860.17
  Q 455.48 880.46 455.30 901.82
  Q 455.16 917.97 455.64 934.58
  Q 456.07 949.81 454.58 967.29
  C 452.73 989.02 446.17 1013.20 425.12 1022.26
  Q 420.61 1024.21 415.46 1023.98
  Q 414.97 1023.95 414.55 1024.21
  Q 413.52 1024.85 412.82 1025.87
  Q 404.38 1038.20 404.27 1054.28
  C 404.21 1063.86 407.48 1070.50 414.03 1077.36
  Q 418.62 1082.17 423.11 1086.86
  C 426.87 1090.78 430.03 1095.81 429.82 1101.22
  Q 429.80 1101.81 429.25 1102.02
  C 417.93 1106.36 404.98 1107.41 391.07 1106.58
  Q 377.39 1105.76 366.49 1100.57
  C 355.96 1095.55 352.58 1087.19 351.88 1076.00
  Q 351.24 1065.71 351.54 1054.72
  C 351.61 1052.21 351.45 1049.05 351.02 1046.55
  Q 348.74 1033.38 349.28 1023.84
  C 350.10 1009.43 350.60 997.07 349.81 983.51
  Q 348.92 968.33 347.47 943.74
  Q 347.42 942.82 347.38 941.87
  Q 347.35 941.02 347.22 941.86
  Z
  M 273.88 594.02
  Q 274.22 592.98 274.49 591.92
  A 1.05 1.03 36.4 0 0 274.36 591.11
  Q 272.25 587.82 269.28 585.17
  Q 268.92 584.85 268.45 584.97
  C 262.88 586.38 261.17 592.97 260.68 598.20
  Q 259.93 606.11 259.68 613.63
  Q 259.35 623.33 265.39 631.90
  Q 267.47 634.86 270.44 636.62
  Q 270.84 636.86 270.93 636.40
  Q 272.57 628.44 271.85 619.38
  Q 271.45 614.33 271.30 608.93
  Q 271.13 602.45 273.88 594.02
  Z
  M 258.64 664.70
  A 0.34 0.34 0.0 0 0 259.21 664.64
  L 264.46 653.41
  A 0.34 0.34 0.0 0 0 264.39 653.02
  L 256.49 645.11
  A 0.34 0.34 0.0 0 0 256.01 645.11
  L 248.97 652.17
  A 0.34 0.34 0.0 0 0 248.94 652.63
  L 258.64 664.70
  Z
  M 251.11 700.24
  L 245.07 713.62
  A 0.95 0.94 38.7 0 0 245.18 714.58
  L 249.18 719.98
  A 0.26 0.26 0.0 0 0 249.65 719.86
  Q 250.93 710.83 251.56 700.35
  Q 251.63 699.09 251.11 700.24
  Z
  M 346.08 880.05
  C 339.30 880.05 333.06 877.92 326.84 875.22
  Q 326.02 874.86 326.37 875.68
  C 332.39 889.42 339.03 902.90 343.62 917.33
  Q 345.37 922.83 346.32 928.86
  Q 346.35 929.03 346.52 929.02
  L 346.53 929.01
  Q 346.71 929.00 346.70 928.82
  Q 345.53 902.26 350.18 875.74
  C 354.22 852.72 358.27 830.81 360.63 808.08
  C 363.21 783.37 362.91 757.76 355.77 734.16
  Q 355.38 732.88 355.43 734.22
  Q 355.78 743.32 355.14 752.01
  Q 353.88 769.20 350.63 788.79
  Q 346.16 815.72 342.25 834.32
  Q 340.47 842.77 341.51 852.87
  C 342.43 861.89 346.98 870.10 346.77 879.37
  Q 346.76 880.05 346.08 880.05
  Z"
/>
</svg>
