<?xml version="1.0" encoding="UTF-8" standalone="no"?>
<!DOCTYPE svg PUBLIC "-//W3C//DTD SVG 1.1//EN" "http://www.w3.org/Graphics/SVG/1.1/DTD/svg11.dtd">
<svg xmlns="http://www.w3.org/2000/svg" version="1.1" viewBox="0.00 0.00 901.00 1087.00">
<path fill="#482feb" d="
  M 649.30 0.00
  L 651.59 0.00
  L 755.65 134.83
  Q 756.17 135.50 757.02 135.50
  L 803.75 135.50
  Q 804.25 135.50 804.25 135.00
  L 804.25 128.00
  Q 804.25 127.50 804.75 127.50
  L 835.25 127.50
  A 0.50 0.50 0.0 0 1 835.75 128.00
  L 835.75 153.50
  A 0.25 0.24 -0.0 0 1 835.50 153.74
  L 815.50 153.76
  Q 815.00 153.76 815.00 154.25
  L 815.00 189.75
  Q 815.00 190.25 814.50 190.25
  L 752.75 190.25
  Q 752.25 190.25 752.25 189.75
  L 752.25 154.50
  A 0.75 0.75 0.0 0 0 751.50 153.75
  L 682.25 153.75
  Q 681.75 153.75 681.75 154.25
  L 681.75 210.62
  Q 681.75 211.25 681.13 211.25
  L 669.75 211.25
  Q 668.63 211.25 669.43 212.05
  L 675.98 218.61
  Q 676.50 219.13 676.50 219.87
  Q 676.49 332.79 676.51 445.75
  Q 676.52 447.69 676.67 449.63
  Q 676.73 450.45 677.55 450.46
  L 680.23 450.47
  Q 681.43 450.47 681.44 449.27
  L 681.53 431.49
  Q 681.53 431.00 682.01 431.00
  L 732.74 431.00
  A 1.85 1.84 -87.1 0 0 734.57 429.34
  C 734.93 425.83 735.05 422.36 734.53 418.83
  Q 734.16 416.37 734.62 413.92
  Q 734.71 413.43 734.42 413.02
  L 734.05 412.52
  A 1.66 1.65 -62.8 0 1 733.73 411.51
  Q 733.78 408.59 733.74 405.24
  C 733.72 403.73 735.21 403.14 736.47 403.22
  Q 737.28 403.27 737.16 402.47
  Q 736.70 399.37 737.13 396.41
  A 1.59 1.58 33.6 0 0 736.91 395.33
  L 735.12 392.35
  Q 734.26 390.92 734.29 392.59
  C 734.33 394.54 732.40 397.20 731.29 398.79
  A 2.26 2.26 0.0 0 0 731.40 401.51
  Q 733.21 403.70 732.19 406.34
  Q 732.00 406.84 731.47 406.90
  C 729.11 407.18 726.17 406.42 726.83 403.25
  Q 728.14 397.01 729.83 390.75
  C 730.42 388.57 730.21 386.50 730.14 384.29
  C 730.04 380.94 731.99 380.43 734.50 379.31
  A 0.65 0.64 68.5 0 0 734.84 378.51
  Q 734.41 377.29 733.02 377.24
  A 0.73 0.72 -2.3 0 1 732.32 376.60
  C 731.86 372.18 729.02 364.77 736.43 364.11
  Q 738.94 363.88 741.11 365.79
  Q 743.71 368.08 743.93 372.01
  Q 744.06 374.43 743.34 376.27
  Q 743.18 376.68 743.56 376.88
  L 745.65 378.02
  Q 746.16 378.29 746.73 378.32
  Q 753.35 378.66 755.84 383.75
  Q 758.03 388.22 759.55 393.49
  C 760.55 396.97 758.19 398.01 756.10 399.84
  A 1.13 1.11 -23.1 0 0 755.72 400.76
  Q 755.87 403.21 756.49 407.28
  Q 757.29 412.59 757.49 419.57
  Q 757.56 422.05 756.68 424.38
  Q 755.45 427.64 755.28 431.28
  C 755.20 433.09 754.09 434.51 754.22 436.39
  Q 754.65 442.91 752.75 449.06
  A 1.11 1.11 0.0 0 0 753.81 450.50
  L 765.25 450.50
  Q 766.00 450.50 766.00 449.75
  L 766.00 409.25
  Q 766.00 408.75 766.50 408.75
  L 786.50 408.75
  Q 787.00 408.75 787.00 409.25
  L 787.00 450.25
  A 0.25 0.25 0.0 0 0 787.25 450.50
  L 810.50 450.50
  Q 811.00 450.50 811.00 450.00
  L 811.00 388.17
  Q 811.00 388.01 811.15 388.01
  L 816.25 388.00
  Q 816.50 388.00 816.50 388.25
  L 816.50 450.25
  Q 816.50 450.50 816.75 450.50
  L 821.25 450.49
  Q 821.50 450.49 821.50 450.24
  L 821.50 388.25
  Q 821.50 388.00 821.75 388.00
  L 826.75 388.00
  Q 827.00 388.00 827.00 388.25
  L 827.00 450.00
  Q 827.00 450.50 827.50 450.50
  L 838.50 450.49
  Q 838.75 450.49 838.75 450.25
  L 838.75 388.25
  Q 838.75 388.00 839.00 388.00
  L 843.76 388.01
  Q 844.00 388.01 844.00 388.26
  L 844.00 450.00
  A 0.50 0.50 0.0 0 0 844.50 450.50
  L 900.25 450.50
  A 0.50 0.50 0.0 0 1 900.75 451.00
  L 900.75 1085.87
  A 0.38 0.38 0.0 0 1 900.37 1086.25
  L 275.75 1086.25
  A 0.25 0.25 0.0 0 1 275.50 1086.00
  L 275.50 1065.50
  Q 275.50 1065.00 276.00 1065.00
  L 404.00 1065.00
  Q 404.50 1065.00 404.50 1064.50
  L 404.50 1014.25
  Q 404.50 1013.75 404.00 1013.75
  L 300.67 1013.75
  Q 300.50 1013.75 300.50 1013.58
  L 300.53 1008.45
  Q 300.53 1008.25 300.74 1008.25
  L 404.25 1008.25
  A 0.25 0.25 0.0 0 0 404.50 1008.00
  L 404.50 982.25
  A 0.25 0.25 0.0 0 0 404.25 982.00
  L 300.75 982.00
  A 0.25 0.25 0.0 0 1 300.50 981.75
  L 300.50 961.50
  A 0.50 0.50 0.0 0 1 301.00 961.00
  L 404.26 961.00
  Q 404.52 961.00 404.52 960.74
  L 404.46 952.48
  Q 404.46 952.25 404.23 952.25
  L 354.00 952.25
  Q 353.75 952.25 353.75 952.00
  L 353.75 947.00
  Q 353.75 946.75 354.00 946.75
  L 404.19 946.75
  A 0.30 0.29 -0.0 0 0 404.49 946.46
  L 404.50 938.50
  Q 404.50 938.25 404.25 938.25
  L 300.75 938.25
  Q 300.50 938.25 300.50 938.00
  L 300.50 933.00
  Q 300.50 932.75 300.75 932.75
  L 404.00 932.75
  A 0.50 0.50 0.0 0 0 404.50 932.25
  L 404.50 524.01
  A 0.49 0.49 0.0 0 1 404.99 523.52
  L 430.75 523.50
  A 0.75 0.75 0.0 0 0 431.50 522.75
  L 431.50 482.75
  A 0.75 0.75 0.0 0 0 430.75 482.00
  L 405.00 482.00
  Q 404.50 482.00 404.50 481.50
  L 404.50 461.50
  A 0.50 0.50 0.0 0 1 405.00 461.00
  L 456.50 461.00
  A 0.50 0.50 0.0 0 0 457.00 460.50
  L 457.00 409.00
  Q 457.00 408.75 457.25 408.75
  L 462.00 408.75
  Q 462.25 408.75 462.25 409.00
  L 462.25 460.75
  Q 462.25 461.00 462.50 461.00
  L 467.00 461.00
  Q 467.25 460.99 467.25 460.75
  L 467.25 409.00
  Q 467.25 408.75 467.50 408.75
  L 472.50 408.75
  Q 472.75 408.75 472.75 409.00
  L 472.75 460.50
  Q 472.75 461.00 473.25 461.00
  L 483.75 461.00
  A 0.75 0.75 0.0 0 0 484.50 460.25
  L 484.50 409.00
  Q 484.50 408.75 484.75 408.75
  L 489.75 408.75
  Q 490.00 408.75 490.00 409.00
  L 490.00 460.25
  Q 490.00 460.99 490.75 461.00
  L 493.25 461.04
  Q 493.91 461.04 493.91 460.38
  L 494.04 367.94
  A 0.53 0.52 90.0 0 1 494.56 367.41
  L 514.23 367.22
  A 0.76 0.76 0.0 0 1 515.00 367.98
  L 515.00 460.50
  Q 515.00 461.00 515.50 461.00
  L 529.03 461.00
  Q 530.12 461.00 529.30 460.27
  Q 527.04 458.27 525.28 455.56
  A 2.57 2.57 0.0 0 1 525.32 452.71
  L 526.81 450.56
  A 0.86 0.84 56.2 0 0 526.94 449.85
  Q 526.37 447.44 527.90 445.39
  Q 529.99 442.59 530.52 439.00
  Q 530.78 437.23 532.13 435.69
  C 537.27 429.86 543.25 428.13 550.85 428.00
  Q 551.60 427.98 552.03 427.37
  C 555.58 422.32 563.50 419.85 566.42 427.34
  C 567.54 430.24 566.04 431.77 565.77 434.62
  A 0.70 0.70 0.0 0 1 565.05 435.26
  L 562.56 435.20
  Q 561.96 435.18 562.01 435.78
  Q 562.32 439.76 562.25 443.47
  C 562.22 445.31 563.19 446.62 563.11 448.57
  C 563.01 451.43 563.40 455.39 565.77 457.40
  Q 566.18 457.75 566.20 458.29
  L 566.27 460.27
  Q 566.30 461.00 567.02 461.00
  L 576.75 461.00
  Q 577.25 461.00 577.25 460.50
  L 577.25 430.25
  Q 577.25 429.75 577.75 429.75
  L 597.50 429.75
  A 0.75 0.75 0.0 0 1 598.25 430.50
  L 598.25 445.25
  A 0.50 0.50 0.0 0 0 598.75 445.75
  L 622.71 445.75
  A 0.29 0.29 0.0 0 0 623.00 445.46
  Q 623.00 389.31 623.01 333.10
  Q 623.01 329.95 623.43 326.43
  Q 623.93 322.35 623.94 318.80
  Q 624.04 269.56 623.98 220.17
  Q 623.98 219.39 624.53 218.84
  L 631.54 211.84
  Q 632.12 211.25 631.29 211.25
  L 619.50 211.25
  Q 619.00 211.25 619.00 210.75
  L 619.00 154.25
  Q 619.00 153.75 618.50 153.75
  L 2.75 153.75
  Q 2.25 153.75 2.25 153.25
  L 2.25 149.32
  Q 2.25 148.79 1.81 148.49
  L 0.00 147.25
  Q 0.00 147.11 0.00 146.97
  L 22.63 107.78
  A 1.59 1.57 -74.6 0 1 23.99 107.00
  L 251.75 107.00
  Q 252.25 107.00 252.25 106.50
  L 252.25 92.04
  Q 252.25 91.49 252.80 91.49
  Q 266.23 91.51 279.71 91.54
  C 282.21 91.54 284.73 91.09 287.29 90.45
  Q 543.92 26.36 616.50 8.30
  Q 639.22 2.64 649.30 0.00
  Z
  M 294.25 106.63
  A 0.37 0.37 0.0 0 0 294.62 107.00
  L 606.32 107.00
  A 0.37 0.37 0.0 0 1 606.64 107.19
  L 626.85 142.22
  A 0.37 0.37 0.0 0 0 627.54 142.09
  L 646.85 6.91
  A 0.37 0.37 0.0 0 0 646.40 6.50
  L 294.53 94.31
  A 0.37 0.37 0.0 0 0 294.25 94.67
  L 294.25 106.63
  Z
  M 669.02 114.73
  A 0.31 0.31 0.0 0 0 669.33 115.00
  L 712.68 115.01
  A 0.31 0.31 0.0 0 1 712.99 115.32
  L 713.00 135.19
  A 0.31 0.31 0.0 0 0 713.31 135.50
  L 729.84 135.50
  A 0.31 0.31 0.0 0 0 730.10 135.03
  L 655.56 16.40
  A 0.31 0.31 0.0 0 0 654.99 16.61
  L 669.02 114.73
  Z
  M 649.81 24.75
  Q 647.36 42.84 644.46 61.95
  A 0.53 0.52 3.7 0 0 644.99 62.55
  L 655.26 62.47
  A 0.64 0.64 0.0 0 0 655.89 61.74
  L 650.43 23.51
  Q 650.42 23.43 650.38 23.36
  Q 650.28 23.21 650.13 23.22
  Q 649.81 23.23 649.84 23.55
  Q 649.89 24.15 649.81 24.75
  Z
  M 684.79 52.49
  L 736.58 134.88
  Q 736.97 135.50 737.71 135.50
  L 748.48 135.50
  Q 749.07 135.50 748.71 135.04
  L 685.06 52.26
  Q 685.01 52.20 684.95 52.24
  L 684.74 52.39
  Q 684.74 52.39 684.79 52.49
  Z
  M 654.29 68.43
  A 0.30 0.30 0.0 0 0 654.03 67.98
  L 643.91 68.01
  A 0.30 0.30 0.0 0 0 643.61 68.27
  L 640.22 91.77
  A 0.30 0.30 0.0 0 0 640.78 91.96
  L 654.29 68.43
  Z
  M 640.36 103.78
  A 0.32 0.32 0.0 0 0 640.63 104.26
  L 661.57 104.24
  A 0.32 0.32 0.0 0 0 661.89 103.88
  L 657.78 74.64
  A 0.32 0.32 0.0 0 0 657.19 74.53
  L 640.36 103.78
  Z
  M 650.75 115.00
  L 653.27 115.00
  Q 654.31 115.00 654.97 114.19
  L 658.18 110.26
  Q 658.81 109.50 657.82 109.50
  L 638.26 109.50
  Q 637.77 109.50 637.70 109.99
  L 633.58 138.76
  A 0.20 0.19 69.5 0 0 633.92 138.92
  L 649.85 120.15
  Q 650.26 119.67 650.25 119.04
  L 650.24 115.51
  Q 650.24 115.00 650.75 115.00
  Z
  M 663.3504 113.7785
  A 0.90 0.68 -42.8 0 0 662.2280 113.8911
  A 0.90 0.68 -42.8 0 0 662.0296 115.0015
  A 0.90 0.68 -42.8 0 0 663.1520 114.8889
  A 0.90 0.68 -42.8 0 0 663.3504 113.7785
  Z
  M 43.62 142.38
  A 0.41 0.41 0.0 0 0 44.33 142.38
  L 58.20 118.37
  A 0.41 0.41 0.0 0 0 57.85 117.75
  L 30.10 117.75
  A 0.41 0.41 0.0 0 0 29.75 118.37
  L 43.62 142.38
  Z
  M 71.68 117.75
  A 0.35 0.35 0.0 0 0 71.37 118.28
  L 85.34 142.47
  A 0.35 0.35 0.0 0 0 85.94 142.47
  L 99.94 118.26
  A 0.35 0.35 0.0 0 0 99.63 117.74
  L 71.68 117.75
  Z
  M 141.56 118.27
  A 0.35 0.35 0.0 0 0 141.25 117.74
  L 113.35 117.74
  A 0.35 0.35 0.0 0 0 113.04 118.27
  L 127.00 142.50
  A 0.35 0.35 0.0 0 0 127.60 142.50
  L 141.56 118.27
  Z
  M 168.62 142.38
  A 0.41 0.41 0.0 0 0 169.33 142.38
  L 183.20 118.36
  A 0.41 0.41 0.0 0 0 182.85 117.74
  L 155.10 117.75
  A 0.41 0.41 0.0 0 0 154.75 118.36
  L 168.62 142.38
  Z
  M 196.68 117.75
  A 0.35 0.35 0.0 0 0 196.37 118.28
  L 210.34 142.47
  A 0.35 0.35 0.0 0 0 210.94 142.47
  L 224.94 118.26
  A 0.35 0.35 0.0 0 0 224.63 117.74
  L 196.68 117.75
  Z
  M 266.56 118.27
  A 0.35 0.35 0.0 0 0 266.25 117.74
  L 238.35 117.74
  A 0.35 0.35 0.0 0 0 238.04 118.27
  L 252.00 142.50
  A 0.35 0.35 0.0 0 0 252.60 142.50
  L 266.56 118.27
  Z
  M 293.62 142.36
  A 0.42 0.42 0.0 0 0 294.35 142.36
  L 308.20 118.38
  A 0.42 0.42 0.0 0 0 307.83 117.75
  L 280.12 117.74
  A 0.42 0.42 0.0 0 0 279.76 118.37
  L 293.62 142.36
  Z
  M 321.68 117.75
  A 0.35 0.35 0.0 0 0 321.37 118.28
  L 335.34 142.47
  A 0.35 0.35 0.0 0 0 335.94 142.47
  L 349.94 118.26
  A 0.35 0.35 0.0 0 0 349.63 117.74
  L 321.68 117.75
  Z
  M 391.55 118.27
  A 0.35 0.35 0.0 0 0 391.25 117.74
  L 363.35 117.74
  A 0.35 0.35 0.0 0 0 363.05 118.27
  L 377.00 142.50
  A 0.35 0.35 0.0 0 0 377.60 142.50
  L 391.55 118.27
  Z
  M 418.62 142.36
  A 0.42 0.42 0.0 0 0 419.34 142.36
  L 433.20 118.38
  A 0.42 0.42 0.0 0 0 432.83 117.75
  L 405.12 117.75
  A 0.42 0.42 0.0 0 0 404.75 118.38
  L 418.62 142.36
  Z
  M 446.68 117.75
  A 0.35 0.35 0.0 0 0 446.37 118.28
  L 460.34 142.47
  A 0.35 0.35 0.0 0 0 460.94 142.47
  L 474.94 118.26
  A 0.35 0.35 0.0 0 0 474.63 117.74
  L 446.68 117.75
  Z
  M 516.55 118.27
  A 0.35 0.35 0.0 0 0 516.25 117.74
  L 488.35 117.74
  A 0.35 0.35 0.0 0 0 488.05 118.27
  L 502.00 142.50
  A 0.35 0.35 0.0 0 0 502.60 142.50
  L 516.55 118.27
  Z
  M 543.62 142.36
  A 0.42 0.42 0.0 0 0 544.34 142.36
  L 558.20 118.38
  A 0.42 0.42 0.0 0 0 557.83 117.75
  L 530.12 117.75
  A 0.42 0.42 0.0 0 0 529.75 118.38
  L 543.62 142.36
  Z
  M 571.68 117.75
  A 0.35 0.35 0.0 0 0 571.37 118.28
  L 585.34 142.47
  A 0.35 0.35 0.0 0 0 585.94 142.47
  L 599.94 118.26
  A 0.35 0.35 0.0 0 0 599.63 117.74
  L 571.68 117.75
  Z
  M 37.19 143.24
  A 0.30 0.30 0.0 0 0 37.45 142.79
  L 23.41 118.47
  A 0.30 0.30 0.0 0 0 22.89 118.47
  L 8.83 142.80
  A 0.30 0.30 0.0 0 0 9.09 143.25
  L 37.19 143.24
  Z
  M 50.51 142.77
  A 0.32 0.32 0.0 0 0 50.79 143.25
  L 78.81 143.25
  A 0.32 0.32 0.0 0 0 79.09 142.77
  L 65.08 118.49
  A 0.32 0.32 0.0 0 0 64.52 118.49
  L 50.51 142.77
  Z
  M 106.74 118.49
  A 0.31 0.31 0.0 0 0 106.21 118.49
  L 92.18 142.78
  A 0.31 0.31 0.0 0 0 92.45 143.24
  L 120.51 143.25
  A 0.31 0.31 0.0 0 0 120.78 142.79
  L 106.74 118.49
  Z
  M 148.41 118.48
  A 0.31 0.31 0.0 0 0 147.88 118.48
  L 133.84 142.79
  A 0.31 0.31 0.0 0 0 134.11 143.26
  L 162.17 143.25
  A 0.31 0.31 0.0 0 0 162.44 142.79
  L 148.41 118.48
  Z
  M 175.51 142.77
  A 0.32 0.32 0.0 0 0 175.79 143.25
  L 203.81 143.25
  A 0.32 0.32 0.0 0 0 204.09 142.77
  L 190.08 118.49
  A 0.32 0.32 0.0 0 0 189.52 118.49
  L 175.51 142.77
  Z
  M 231.73 118.49
  A 0.30 0.30 0.0 0 0 231.21 118.49
  L 217.17 142.80
  A 0.30 0.30 0.0 0 0 217.43 143.25
  L 245.51 143.26
  A 0.30 0.30 0.0 0 0 245.77 142.81
  L 231.73 118.49
  Z
  M 273.41 118.48
  A 0.31 0.31 0.0 0 0 272.88 118.48
  L 258.84 142.79
  A 0.31 0.31 0.0 0 0 259.11 143.26
  L 287.17 143.25
  A 0.31 0.31 0.0 0 0 287.44 142.79
  L 273.41 118.48
  Z
  M 300.51 142.77
  A 0.32 0.32 0.0 0 0 300.79 143.25
  L 328.81 143.25
  A 0.32 0.32 0.0 0 0 329.09 142.77
  L 315.08 118.49
  A 0.32 0.32 0.0 0 0 314.52 118.49
  L 300.51 142.77
  Z
  M 356.74 118.49
  A 0.31 0.31 0.0 0 0 356.21 118.49
  L 342.18 142.78
  A 0.31 0.31 0.0 0 0 342.45 143.24
  L 370.51 143.25
  A 0.31 0.31 0.0 0 0 370.78 142.79
  L 356.74 118.49
  Z
  M 398.41 118.48
  A 0.31 0.31 0.0 0 0 397.88 118.48
  L 383.84 142.79
  A 0.31 0.31 0.0 0 0 384.11 143.26
  L 412.17 143.25
  A 0.31 0.31 0.0 0 0 412.44 142.79
  L 398.41 118.48
  Z
  M 425.51 142.77
  A 0.32 0.32 0.0 0 0 425.79 143.25
  L 453.81 143.25
  A 0.32 0.32 0.0 0 0 454.09 142.77
  L 440.08 118.49
  A 0.32 0.32 0.0 0 0 439.52 118.49
  L 425.51 142.77
  Z
  M 481.73 118.49
  A 0.30 0.30 0.0 0 0 481.21 118.49
  L 467.17 142.80
  A 0.30 0.30 0.0 0 0 467.43 143.25
  L 495.51 143.26
  A 0.30 0.30 0.0 0 0 495.77 142.81
  L 481.73 118.49
  Z
  M 523.41 118.48
  A 0.31 0.31 0.0 0 0 522.88 118.48
  L 508.84 142.79
  A 0.31 0.31 0.0 0 0 509.11 143.26
  L 537.17 143.25
  A 0.31 0.31 0.0 0 0 537.44 142.79
  L 523.41 118.48
  Z
  M 550.51 142.77
  A 0.32 0.32 0.0 0 0 550.79 143.25
  L 578.81 143.25
  A 0.32 0.32 0.0 0 0 579.09 142.77
  L 565.08 118.49
  A 0.32 0.32 0.0 0 0 564.52 118.49
  L 550.51 142.77
  Z
  M 606.73 118.49
  A 0.30 0.30 0.0 0 0 606.21 118.49
  L 592.17 142.80
  A 0.30 0.30 0.0 0 0 592.43 143.25
  L 620.51 143.26
  A 0.30 0.30 0.0 0 0 620.77 142.81
  L 606.73 118.49
  Z
  M 650.26 129.31
  A 0.38 0.38 0.0 0 0 649.59 129.06
  L 638.05 142.63
  A 0.38 0.38 0.0 0 0 638.34 143.26
  L 649.86 143.24
  A 0.38 0.38 0.0 0 0 650.24 142.86
  L 650.26 129.31
  Z
  M 734.38 143.25
  A 0.51 0.51 0.0 0 0 734.82 142.48
  L 733.95 141.00
  A 0.51 0.51 0.0 0 0 733.51 140.75
  L 713.51 140.75
  A 0.51 0.51 0.0 0 0 713.00 141.25
  L 712.97 142.73
  A 0.51 0.51 0.0 0 0 713.48 143.25
  L 734.38 143.25
  Z
  M 754.40 143.26
  A 0.38 0.38 0.0 0 0 754.69 142.64
  L 753.24 140.89
  A 0.38 0.38 0.0 0 0 752.95 140.75
  L 740.95 140.75
  A 0.38 0.38 0.0 0 0 740.62 141.32
  L 741.65 143.05
  A 0.38 0.38 0.0 0 0 741.98 143.24
  L 754.40 143.26
  Z
  M 760.99 140.74
  A 0.44 0.44 0.0 0 0 760.66 141.47
  L 762.10 143.10
  A 0.44 0.44 0.0 0 0 762.43 143.25
  L 803.77 143.25
  A 0.44 0.44 0.0 0 0 804.21 142.81
  L 804.22 141.19
  A 0.44 0.44 0.0 0 0 803.78 140.75
  L 760.99 140.74
  Z
  M 659.98 218.75
  A 0.31 0.31 0.0 0 0 660.20 218.22
  L 653.35 211.33
  A 0.31 0.31 0.0 0 0 653.13 211.24
  L 647.29 211.28
  A 0.31 0.31 0.0 0 0 647.07 211.37
  L 640.15 218.22
  A 0.31 0.31 0.0 0 0 640.36 218.75
  L 659.98 218.75
  Z
  M 636.94 224.25
  A 0.34 0.34 0.0 0 0 636.70 224.83
  L 665.17 253.30
  A 0.34 0.34 0.0 0 0 665.75 253.06
  L 665.75 224.59
  A 0.34 0.34 0.0 0 0 665.41 224.25
  L 636.94 224.25
  Z
  M 663.71 260.50
  A 0.32 0.32 0.0 0 0 663.94 259.96
  L 635.29 231.31
  A 0.32 0.32 0.0 0 0 634.75 231.54
  L 634.75 260.18
  A 0.32 0.32 0.0 0 0 635.07 260.50
  L 663.71 260.50
  Z
  M 636.91 265.75
  A 0.33 0.33 0.0 0 0 636.68 266.32
  L 665.18 294.82
  A 0.33 0.33 0.0 0 0 665.75 294.59
  L 665.75 266.08
  A 0.33 0.33 0.0 0 0 665.42 265.75
  L 636.91 265.75
  Z
  M 663.58 302.00
  A 0.33 0.33 0.0 0 0 663.81 301.43
  L 635.31 272.93
  A 0.33 0.33 0.0 0 0 634.74 273.16
  L 634.74 301.67
  A 0.33 0.33 0.0 0 0 635.07 302.00
  L 663.58 302.00
  Z
  M 657.31 325.40
  Q 658.96 325.58 660.49 325.50
  Q 661.25 325.46 661.25 326.22
  L 661.25 331.82
  Q 661.25 332.77 661.92 333.43
  L 665.09 336.58
  Q 665.75 337.25 665.75 336.31
  L 665.75 307.78
  A 0.28 0.28 0.0 0 0 665.47 307.50
  L 636.83 307.50
  A 0.34 0.34 0.0 0 0 636.59 308.08
  L 655.13 326.64
  Q 655.90 327.41 655.92 326.32
  Q 655.92 325.93 656.21 325.71
  Q 656.69 325.33 657.31 325.40
  Z
  M 638.25 325.50
  L 642.75 325.50
  A 0.50 0.50 0.0 0 1 643.25 326.00
  L 643.25 343.25
  A 0.50 0.50 0.0 0 0 643.75 343.75
  L 647.00 343.75
  Q 647.50 343.74 647.50 343.25
  L 647.50 327.52
  A 1.26 1.22 -68.1 0 0 647.14 326.64
  L 635.26 314.77
  Q 634.75 314.27 634.75 314.98
  L 634.75 343.38
  Q 634.75 343.77 635.13 343.76
  L 637.27 343.72
  Q 637.75 343.71 637.75 343.23
  L 637.75 326.00
  Q 637.75 325.50 638.25 325.50
  Z
  M 653.52 333.03
  A 0.34 0.34 0.0 0 0 652.94 333.27
  L 653.04 343.44
  A 0.34 0.34 0.0 0 0 653.38 343.77
  L 655.67 343.72
  A 0.34 0.34 0.0 0 0 656.00 343.38
  L 656.00 335.62
  A 0.34 0.34 0.0 0 0 655.90 335.38
  L 653.52 333.03
  Z
  M 663.50 343.87
  A 0.29 0.29 0.0 0 0 663.77 343.41
  Q 662.88 342.11 661.56 341.26
  Q 661.18 341.02 661.20 341.47
  L 661.30 343.41
  Q 661.31 343.64 661.54 343.67
  L 663.50 343.87
  Z
  M 643.27 356.23
  A 0.32 0.32 0.0 0 0 643.36 356.45
  L 646.94 360.12
  A 0.32 0.32 0.0 0 0 647.49 359.90
  L 647.51 349.57
  A 0.32 0.32 0.0 0 0 647.19 349.25
  L 643.57 349.25
  A 0.32 0.32 0.0 0 0 643.25 349.57
  L 643.27 356.23
  Z
  M 653.00 365.89
  A 0.42 0.42 0.0 0 0 653.11 366.17
  L 655.27 368.60
  A 0.42 0.42 0.0 0 0 656.01 368.32
  L 655.96 349.63
  A 0.42 0.42 0.0 0 0 655.53 349.21
  L 653.41 349.28
  A 0.42 0.42 0.0 0 0 653.00 349.70
  L 653.00 365.89
  Z
  M 661.25 374.18
  A 0.35 0.35 0.0 0 0 661.35 374.42
  L 665.17 378.38
  A 0.35 0.35 0.0 0 0 665.77 378.13
  L 665.73 349.63
  A 0.35 0.35 0.0 0 0 665.38 349.28
  L 661.60 349.23
  A 0.35 0.35 0.0 0 0 661.25 349.58
  L 661.25 374.18
  Z
  M 637.75 358.94
  A 0.32 0.32 0.0 0 0 637.66 358.72
  L 635.29 356.23
  A 0.32 0.32 0.0 0 0 634.74 356.45
  L 634.75 385.20
  A 0.32 0.32 0.0 0 0 635.07 385.52
  L 637.43 385.48
  A 0.32 0.32 0.0 0 0 637.75 385.16
  L 637.75 358.94
  Z
  M 647.49 368.67
  A 0.32 0.32 0.0 0 0 647.40 368.45
  L 643.73 364.64
  A 0.32 0.32 0.0 0 0 643.18 364.86
  L 643.28 385.19
  A 0.32 0.32 0.0 0 0 643.60 385.51
  L 647.19 385.49
  A 0.32 0.32 0.0 0 0 647.51 385.17
  L 647.49 368.67
  Z
  M 656.00 377.14
  A 0.32 0.32 0.0 0 0 655.91 376.92
  L 653.55 374.49
  A 0.32 0.32 0.0 0 0 653.00 374.72
  L 653.01 385.16
  A 0.32 0.32 0.0 0 0 653.32 385.48
  L 655.67 385.51
  A 0.32 0.32 0.0 0 0 656.00 385.19
  L 656.00 377.14
  Z
  M 661.78 382.76
  Q 661.30 382.29 661.28 382.96
  L 661.24 384.62
  Q 661.21 385.53 662.12 385.52
  L 663.48 385.49
  Q 664.50 385.47 663.78 384.75
  L 661.78 382.76
  Z
  M 643.25 397.62
  A 0.41 0.41 0.0 0 0 643.36 397.90
  L 646.76 401.57
  A 0.41 0.41 0.0 0 0 647.47 401.29
  L 647.51 391.15
  A 0.41 0.41 0.0 0 0 647.10 390.74
  L 643.66 390.74
  A 0.41 0.41 0.0 0 0 643.25 391.15
  L 643.25 397.62
  Z
  M 653.00 407.45
  A 0.35 0.35 0.0 0 0 653.09 407.69
  L 655.39 410.21
  A 0.35 0.35 0.0 0 0 656.00 409.98
  L 656.00 391.08
  A 0.35 0.35 0.0 0 0 655.64 390.73
  L 653.34 390.78
  A 0.35 0.35 0.0 0 0 653.00 391.13
  L 653.00 407.45
  Z
  M 661.25 415.60
  A 0.47 0.47 0.0 0 0 661.37 415.91
  L 664.94 419.80
  A 0.47 0.47 0.0 0 0 665.76 419.48
  L 665.75 391.23
  A 0.47 0.47 0.0 0 0 665.28 390.76
  L 661.72 390.72
  A 0.47 0.47 0.0 0 0 661.25 391.19
  L 661.25 415.60
  Z
  M 637.74 400.60
  A 0.35 0.35 0.0 0 0 637.65 400.36
  L 635.35 397.91
  A 0.35 0.35 0.0 0 0 634.74 398.15
  L 634.75 426.66
  A 0.35 0.35 0.0 0 0 635.10 427.01
  L 637.40 426.97
  A 0.35 0.35 0.0 0 0 637.75 426.62
  L 637.74 400.60
  Z
  M 647.48 410.27
  A 0.35 0.35 0.0 0 0 647.38 410.03
  L 643.75 406.36
  A 0.35 0.35 0.0 0 0 643.16 406.61
  L 643.28 426.66
  A 0.35 0.35 0.0 0 0 643.63 427.01
  L 647.16 426.99
  A 0.35 0.35 0.0 0 0 647.51 426.64
  L 647.48 410.27
  Z
  M 656.01 418.91
  A 0.47 0.47 0.0 0 0 655.88 418.58
  L 653.76 416.34
  A 0.47 0.47 0.0 0 0 652.95 416.67
  L 653.06 426.48
  A 0.47 0.47 0.0 0 0 653.48 426.94
  L 655.45 427.13
  A 0.47 0.47 0.0 0 0 655.96 426.67
  L 656.01 418.91
  Z
  M 741.44 446.82
  Q 741.25 448.43 740.46 449.92
  Q 740.15 450.49 740.80 450.49
  L 743.76 450.50
  Q 744.34 450.51 744.65 450.01
  Q 746.54 446.96 746.70 443.40
  C 746.80 441.28 748.12 439.31 747.37 437.25
  C 746.92 436.02 746.57 434.57 746.81 433.27
  Q 746.99 432.27 746.66 431.34
  C 745.88 429.19 746.32 426.56 746.35 424.30
  Q 746.36 423.27 745.86 424.16
  C 744.52 426.55 742.49 429.05 742.43 431.87
  Q 742.32 437.85 740.58 443.10
  Q 740.12 444.48 741.10 445.67
  A 1.56 1.54 -61.9 0 1 741.44 446.82
  Z
  M 663.79 426.40
  L 662.05 424.70
  Q 661.32 423.99 661.28 425.01
  L 661.24 426.11
  A 0.85 0.85 0.0 0 0 662.11 427.00
  L 663.56 426.98
  Q 664.38 426.97 663.79 426.40
  Z
  M 656.00 433.03
  A 0.61 0.61 0.0 0 0 655.39 432.42
  L 653.61 432.42
  A 0.61 0.61 0.0 0 0 653.00 433.03
  L 653.00 445.17
  A 0.61 0.61 0.0 0 0 653.61 445.78
  L 655.39 445.78
  A 0.61 0.61 0.0 0 0 656.00 445.17
  L 656.00 433.03
  Z
  M 643.26 439.60
  A 0.35 0.35 0.0 0 0 643.36 439.84
  L 646.90 443.41
  A 0.35 0.35 0.0 0 0 647.50 443.16
  L 647.49 432.88
  A 0.35 0.35 0.0 0 0 647.15 432.53
  L 643.61 432.48
  A 0.35 0.35 0.0 0 0 643.25 432.83
  L 643.26 439.60
  Z
  M 665.75 432.96
  A 0.46 0.46 0.0 0 0 665.29 432.50
  L 661.71 432.50
  A 0.46 0.46 0.0 0 0 661.25 432.96
  L 661.25 445.28
  A 0.46 0.46 0.0 0 0 661.71 445.74
  L 665.29 445.74
  A 0.46 0.46 0.0 0 0 665.75 445.28
  L 665.75 432.96
  Z
  M 637.78 445.47
  L 637.74 442.62
  Q 637.73 442.24 637.46 441.96
  L 635.12 439.61
  Q 634.75 439.25 634.75 439.76
  L 634.75 445.50
  Q 634.75 445.76 635.01 445.76
  L 637.52 445.73
  Q 637.78 445.73 637.78 445.47
  Z
  M 557.78 455.18
  Q 557.14 453.09 555.92 454.89
  L 553.54 458.41
  Q 552.63 459.75 554.17 460.24
  Q 557.76 461.39 561.53 460.97
  Q 562.21 460.89 561.95 460.25
  L 560.74 457.24
  Q 560.50 456.65 559.95 456.97
  Q 558.56 457.77 557.78 455.18
  Z
  M 544.51 458.58
  Q 545.55 457.05 546.85 455.80
  Q 546.86 455.79 546.85 455.78
  L 546.67 455.60
  Q 546.48 455.41 546.29 455.61
  Q 544.62 457.36 542.36 458.65
  Q 541.72 459.01 542.22 459.54
  Q 543.25 460.64 544.67 460.95
  Q 545.74 461.18 545.07 460.33
  L 544.55 459.66
  Q 544.13 459.13 544.51 458.58
  Z
  M 457.00 482.46
  A 0.45 0.45 0.0 0 0 456.55 482.01
  L 452.95 482.01
  A 0.45 0.45 0.0 0 0 452.50 482.46
  L 452.50 523.06
  A 0.45 0.45 0.0 0 0 452.95 523.51
  L 456.55 523.51
  A 0.45 0.45 0.0 0 0 457.00 523.06
  L 457.00 482.46
  Z
  M 467.25 482.36
  A 0.36 0.36 0.0 0 0 466.89 482.00
  L 462.61 482.00
  A 0.36 0.36 0.0 0 0 462.25 482.36
  L 462.25 523.14
  A 0.36 0.36 0.0 0 0 462.61 523.50
  L 466.89 523.50
  A 0.36 0.36 0.0 0 0 467.25 523.14
  L 467.25 482.36
  Z
  M 484.50 482.47
  A 0.47 0.47 0.0 0 0 484.03 482.00
  L 473.21 482.00
  A 0.47 0.47 0.0 0 0 472.74 482.47
  L 472.74 523.03
  A 0.47 0.47 0.0 0 0 473.21 523.50
  L 484.03 523.50
  A 0.47 0.47 0.0 0 0 484.50 523.03
  L 484.50 482.47
  Z
  M 493.8293 482.4732
  A 0.47 0.47 0.0 0 0 493.3576 482.0049
  L 490.3576 482.0154
  A 0.47 0.47 0.0 0 0 489.8893 482.4870
  L 490.0307 523.0068
  A 0.47 0.47 0.0 0 0 490.5024 523.4751
  L 493.5024 523.4646
  A 0.47 0.47 0.0 0 0 493.9707 522.9930
  L 493.8293 482.4732
  Z
  M 414.26 544.92
  A 0.41 0.41 0.0 0 0 413.85 544.51
  L 410.41 544.51
  A 0.41 0.41 0.0 0 0 410.00 544.92
  L 410.00 585.60
  A 0.41 0.41 0.0 0 0 410.41 586.01
  L 413.85 586.01
  A 0.41 0.41 0.0 0 0 414.26 585.60
  L 414.26 544.92
  Z
  M 431.50 544.86
  A 0.36 0.36 0.0 0 0 431.14 544.50
  L 420.10 544.50
  A 0.36 0.36 0.0 0 0 419.74 544.86
  L 419.74 585.64
  A 0.36 0.36 0.0 0 0 420.10 586.00
  L 431.14 586.00
  A 0.36 0.36 0.0 0 0 431.50 585.64
  L 431.50 544.86
  Z
  M 457.00 544.83
  A 0.33 0.33 0.0 0 0 456.67 544.50
  L 452.83 544.50
  A 0.33 0.33 0.0 0 0 452.50 544.83
  L 452.50 585.67
  A 0.33 0.33 0.0 0 0 452.83 586.00
  L 456.67 586.00
  A 0.33 0.33 0.0 0 0 457.00 585.67
  L 457.00 544.83
  Z
  M 467.25 544.87
  A 0.37 0.37 0.0 0 0 466.88 544.50
  L 462.62 544.50
  A 0.37 0.37 0.0 0 0 462.25 544.87
  L 462.25 585.63
  A 0.37 0.37 0.0 0 0 462.62 586.00
  L 466.88 586.00
  A 0.37 0.37 0.0 0 0 467.25 585.63
  L 467.25 544.87
  Z
  M 484.50 544.86
  A 0.36 0.36 0.0 0 0 484.14 544.50
  L 473.10 544.50
  A 0.36 0.36 0.0 0 0 472.74 544.86
  L 472.74 585.64
  A 0.36 0.36 0.0 0 0 473.10 586.00
  L 484.14 586.00
  A 0.36 0.36 0.0 0 0 484.50 585.64
  L 484.50 544.86
  Z
  M 493.99 545.39
  A 0.92 0.92 0.0 0 0 493.07 544.47
  L 490.93 544.47
  A 0.92 0.92 0.0 0 0 490.01 545.39
  L 490.01 585.15
  A 0.92 0.92 0.0 0 0 490.93 586.07
  L 493.07 586.07
  A 0.92 0.92 0.0 0 0 493.99 585.15
  L 493.99 545.39
  Z
  M 414.25 607.30
  A 0.30 0.30 0.0 0 0 413.95 607.00
  L 410.29 607.00
  A 0.30 0.30 0.0 0 0 409.99 607.30
  L 409.99 648.20
  A 0.30 0.30 0.0 0 0 410.29 648.50
  L 413.95 648.50
  A 0.30 0.30 0.0 0 0 414.25 648.20
  L 414.25 607.30
  Z
  M 431.50 607.50
  A 0.50 0.50 0.0 0 0 431.00 607.00
  L 420.24 607.00
  A 0.50 0.50 0.0 0 0 419.74 607.50
  L 419.74 648.00
  A 0.50 0.50 0.0 0 0 420.24 648.50
  L 431.00 648.50
  A 0.50 0.50 0.0 0 0 431.50 648.00
  L 431.50 607.50
  Z
  M 529.4451 670.2370
  A 0.85 0.85 0.0 0 0 528.5936 669.3885
  L 526.8136 669.3916
  A 0.85 0.85 0.0 0 0 525.9651 670.2431
  L 526.0349 710.2230
  A 0.85 0.85 0.0 0 0 526.8864 711.0715
  L 528.6664 711.0684
  A 0.85 0.85 0.0 0 0 529.5149 710.2169
  L 529.4451 670.2370
  Z
  M 655.9953 670.5074
  A 1.22 1.22 0.0 0 0 654.7731 669.2895
  L 654.2331 669.2905
  A 1.22 1.22 0.0 0 0 653.0153 670.5126
  L 653.0247 675.9526
  A 1.22 1.22 0.0 0 0 654.2469 677.1705
  L 654.7869 677.1695
  A 1.22 1.22 0.0 0 0 656.0047 675.9474
  L 655.9953 670.5074
  Z
  M 414.26 669.92
  A 0.41 0.41 0.0 0 0 413.85 669.51
  L 410.41 669.51
  A 0.41 0.41 0.0 0 0 410.00 669.92
  L 410.00 710.60
  A 0.41 0.41 0.0 0 0 410.41 711.01
  L 413.85 711.01
  A 0.41 0.41 0.0 0 0 414.26 710.60
  L 414.26 669.92
  Z
  M 431.50 669.85
  A 0.35 0.35 0.0 0 0 431.15 669.50
  L 420.09 669.50
  A 0.35 0.35 0.0 0 0 419.74 669.85
  L 419.74 710.65
  A 0.35 0.35 0.0 0 0 420.09 711.00
  L 431.15 711.00
  A 0.35 0.35 0.0 0 0 431.50 710.65
  L 431.50 669.85
  Z
  M 457.00 669.83
  A 0.33 0.33 0.0 0 0 456.67 669.50
  L 452.83 669.50
  A 0.33 0.33 0.0 0 0 452.50 669.83
  L 452.50 710.67
  A 0.33 0.33 0.0 0 0 452.83 711.00
  L 456.67 711.00
  A 0.33 0.33 0.0 0 0 457.00 710.67
  L 457.00 669.83
  Z
  M 467.25 669.87
  A 0.37 0.37 0.0 0 0 466.88 669.50
  L 462.62 669.50
  A 0.37 0.37 0.0 0 0 462.25 669.87
  L 462.25 710.63
  A 0.37 0.37 0.0 0 0 462.62 711.00
  L 466.88 711.00
  A 0.37 0.37 0.0 0 0 467.25 710.63
  L 467.25 669.87
  Z
  M 484.50 669.86
  A 0.36 0.36 0.0 0 0 484.14 669.50
  L 473.10 669.50
  A 0.36 0.36 0.0 0 0 472.74 669.86
  L 472.74 710.64
  A 0.36 0.36 0.0 0 0 473.10 711.00
  L 484.14 711.00
  A 0.36 0.36 0.0 0 0 484.50 710.64
  L 484.50 669.86
  Z
  M 493.88 670.20
  A 0.70 0.70 0.0 0 0 493.18 669.50
  L 490.70 669.50
  A 0.70 0.70 0.0 0 0 490.00 670.20
  L 490.00 710.46
  A 0.70 0.70 0.0 0 0 490.70 711.16
  L 493.18 711.16
  A 0.70 0.70 0.0 0 0 493.88 710.46
  L 493.88 670.20
  Z
  M 520.50 669.94
  A 0.44 0.44 0.0 0 0 520.06 669.50
  L 515.44 669.50
  A 0.44 0.44 0.0 0 0 515.00 669.94
  L 515.00 710.56
  A 0.44 0.44 0.0 0 0 515.44 711.00
  L 520.06 711.00
  A 0.44 0.44 0.0 0 0 520.50 710.56
  L 520.50 669.94
  Z
  M 564.00 669.84
  A 0.34 0.34 0.0 0 0 563.66 669.50
  L 557.08 669.50
  A 0.34 0.34 0.0 0 0 556.74 669.84
  L 556.74 710.66
  A 0.34 0.34 0.0 0 0 557.08 711.00
  L 563.66 711.00
  A 0.34 0.34 0.0 0 0 564.00 710.66
  L 564.00 669.84
  Z
  M 577.25 669.86
  A 0.36 0.36 0.0 0 0 576.89 669.50
  L 569.85 669.50
  A 0.36 0.36 0.0 0 0 569.49 669.86
  L 569.49 710.64
  A 0.36 0.36 0.0 0 0 569.85 711.00
  L 576.89 711.00
  A 0.36 0.36 0.0 0 0 577.25 710.64
  L 577.25 669.86
  Z
  M 623.00 669.85
  A 0.35 0.35 0.0 0 0 622.65 669.50
  L 598.59 669.50
  A 0.35 0.35 0.0 0 0 598.24 669.85
  L 598.24 710.65
  A 0.35 0.35 0.0 0 0 598.59 711.00
  L 622.65 711.00
  A 0.35 0.35 0.0 0 0 623.00 710.65
  L 623.00 669.85
  Z
  M 637.75 669.89
  A 0.39 0.39 0.0 0 0 637.36 669.50
  L 635.14 669.50
  A 0.39 0.39 0.0 0 0 634.75 669.89
  L 634.75 676.61
  A 0.39 0.39 0.0 0 0 635.14 677.00
  L 637.36 677.00
  A 0.39 0.39 0.0 0 0 637.75 676.61
  L 637.75 669.89
  Z
  M 647.5033 669.9450
  A 0.40 0.40 0.0 0 0 647.1061 669.5422
  L 643.6462 669.5180
  A 0.40 0.40 0.0 0 0 643.2434 669.9152
  L 643.1967 676.5950
  A 0.40 0.40 0.0 0 0 643.5939 676.9978
  L 647.0538 677.0220
  A 0.40 0.40 0.0 0 0 647.4566 676.6248
  L 647.5033 669.9450
  Z
  M 534.97 669.94
  L 534.96 669.93
  Q 534.79 669.93 534.79 670.11
  Q 534.74 690.26 534.77 710.46
  Q 534.77 710.65 534.96 710.65
  L 534.97 710.65
  Q 535.12 710.65 535.12 710.50
  Q 535.21 690.35 535.11 670.08
  Q 535.11 669.94 534.97 669.94
  Z
  M 661.99 674.68
  Q 661.40 674.12 661.35 674.93
  L 661.27 676.10
  Q 661.20 676.99 662.10 676.99
  L 663.24 676.99
  Q 664.40 676.99 663.57 676.19
  L 661.99 674.68
  Z
  M 655.99 682.91
  A 0.40 0.40 0.0 0 0 655.61 682.51
  L 653.43 682.40
  A 0.40 0.40 0.0 0 0 653.01 682.80
  L 653.01 699.26
  A 0.40 0.40 0.0 0 0 653.12 699.54
  L 655.31 701.89
  A 0.40 0.40 0.0 0 0 656.00 701.61
  L 655.99 682.91
  Z
  M 643.26 689.60
  A 0.35 0.35 0.0 0 0 643.36 689.84
  L 646.90 693.41
  A 0.35 0.35 0.0 0 0 647.50 693.17
  L 647.49 682.88
  A 0.35 0.35 0.0 0 0 647.15 682.53
  L 643.61 682.48
  A 0.35 0.35 0.0 0 0 643.25 682.83
  L 643.26 689.60
  Z
  M 661.26 707.44
  A 0.74 0.74 0.0 0 0 661.48 707.97
  L 664.49 710.96
  A 0.74 0.74 0.0 0 0 665.75 710.44
  L 665.76 683.23
  A 0.74 0.74 0.0 0 0 665.02 682.49
  L 661.99 682.46
  A 0.74 0.74 0.0 0 0 661.24 683.21
  L 661.26 707.44
  Z
  M 637.75 692.48
  A 0.35 0.35 0.0 0 0 637.66 692.24
  L 635.34 689.74
  A 0.35 0.35 0.0 0 0 634.73 689.97
  L 634.75 710.66
  A 0.35 0.35 0.0 0 0 635.10 711.01
  L 637.40 710.97
  A 0.35 0.35 0.0 0 0 637.75 710.62
  L 637.75 692.48
  Z
  M 647.49 702.16
  A 0.31 0.31 0.0 0 0 647.40 701.94
  L 643.77 698.23
  A 0.31 0.31 0.0 0 0 643.24 698.45
  L 643.25 710.69
  A 0.31 0.31 0.0 0 0 643.56 711.00
  L 647.19 710.99
  A 0.31 0.31 0.0 0 0 647.50 710.68
  L 647.49 702.16
  Z
  M 652.89 708.42
  L 653.04 710.30
  Q 653.10 711.01 653.81 711.00
  L 655.47 710.99
  Q 656.29 710.98 655.77 710.35
  Q 654.72 709.06 653.45 708.11
  Q 652.82 707.64 652.89 708.42
  Z
  M 493.96 732.88
  A 1.01 1.01 0.0 0 0 492.95 731.87
  L 491.05 731.87
  A 1.01 1.01 0.0 0 0 490.04 732.88
  L 490.04 772.54
  A 1.01 1.01 0.0 0 0 491.05 773.55
  L 492.95 773.55
  A 1.01 1.01 0.0 0 0 493.96 772.54
  L 493.96 732.88
  Z
  M 529.4453 732.8070
  A 0.94 0.94 0.0 0 0 528.5036 731.8686
  L 526.9036 731.8714
  A 0.94 0.94 0.0 0 0 525.9653 732.8131
  L 526.0347 772.6130
  A 0.94 0.94 0.0 0 0 526.9764 773.5514
  L 528.5764 773.5486
  A 0.94 0.94 0.0 0 0 529.5147 772.6069
  L 529.4453 732.8070
  Z
  M 637.75 733.93
  A 0.65 0.65 0.0 0 0 637.53 733.45
  L 635.82 731.93
  A 0.65 0.65 0.0 0 0 634.74 732.42
  L 634.75 759.96
  A 0.65 0.65 0.0 0 0 635.44 760.61
  L 637.14 760.50
  A 0.65 0.65 0.0 0 0 637.75 759.85
  L 637.75 733.93
  Z
  M 414.25 732.30
  A 0.30 0.30 0.0 0 0 413.95 732.00
  L 410.29 732.00
  A 0.30 0.30 0.0 0 0 409.99 732.30
  L 409.99 773.20
  A 0.30 0.30 0.0 0 0 410.29 773.50
  L 413.95 773.50
  A 0.30 0.30 0.0 0 0 414.25 773.20
  L 414.25 732.30
  Z
  M 431.50 732.47
  A 0.47 0.47 0.0 0 0 431.03 732.00
  L 420.21 732.00
  A 0.47 0.47 0.0 0 0 419.74 732.47
  L 419.74 773.03
  A 0.47 0.47 0.0 0 0 420.21 773.50
  L 431.03 773.50
  A 0.47 0.47 0.0 0 0 431.50 773.03
  L 431.50 732.47
  Z
  M 457.00 732.41
  A 0.41 0.41 0.0 0 0 456.59 732.00
  L 452.91 732.00
  A 0.41 0.41 0.0 0 0 452.50 732.41
  L 452.50 773.09
  A 0.41 0.41 0.0 0 0 452.91 773.50
  L 456.59 773.50
  A 0.41 0.41 0.0 0 0 457.00 773.09
  L 457.00 732.41
  Z
  M 467.25 732.36
  A 0.36 0.36 0.0 0 0 466.89 732.00
  L 462.61 732.00
  A 0.36 0.36 0.0 0 0 462.25 732.36
  L 462.25 773.14
  A 0.36 0.36 0.0 0 0 462.61 773.50
  L 466.89 773.50
  A 0.36 0.36 0.0 0 0 467.25 773.14
  L 467.25 732.36
  Z
  M 484.50 732.47
  A 0.47 0.47 0.0 0 0 484.03 732.00
  L 473.21 732.00
  A 0.47 0.47 0.0 0 0 472.74 732.47
  L 472.74 773.03
  A 0.47 0.47 0.0 0 0 473.21 773.50
  L 484.03 773.50
  A 0.47 0.47 0.0 0 0 484.50 773.03
  L 484.50 732.47
  Z
  M 520.50 732.57
  A 0.59 0.59 0.0 0 0 519.91 731.98
  L 515.59 731.98
  A 0.59 0.59 0.0 0 0 515.00 732.57
  L 515.00 772.91
  A 0.59 0.59 0.0 0 0 515.59 773.50
  L 519.91 773.50
  A 0.59 0.59 0.0 0 0 520.50 772.91
  L 520.50 732.57
  Z
  M 564.00 732.38
  A 0.38 0.38 0.0 0 0 563.62 732.00
  L 557.12 732.00
  A 0.38 0.38 0.0 0 0 556.74 732.38
  L 556.74 773.12
  A 0.38 0.38 0.0 0 0 557.12 773.50
  L 563.62 773.50
  A 0.38 0.38 0.0 0 0 564.00 773.12
  L 564.00 732.38
  Z
  M 577.25 732.30
  A 0.30 0.30 0.0 0 0 576.95 732.00
  L 569.79 732.00
  A 0.30 0.30 0.0 0 0 569.49 732.30
  L 569.49 773.20
  A 0.30 0.30 0.0 0 0 569.79 773.50
  L 576.95 773.50
  A 0.30 0.30 0.0 0 0 577.25 773.20
  L 577.25 732.30
  Z
  M 623.00 732.39
  A 0.39 0.39 0.0 0 0 622.61 732.00
  L 598.63 732.00
  A 0.39 0.39 0.0 0 0 598.24 732.39
  L 598.24 773.11
  A 0.39 0.39 0.0 0 0 598.63 773.50
  L 622.61 773.50
  A 0.39 0.39 0.0 0 0 623.00 773.11
  L 623.00 732.39
  Z
  M 644.68 732.02
  A 0.34 0.34 0.0 0 0 644.44 732.60
  L 646.95 735.07
  A 0.34 0.34 0.0 0 0 647.53 734.82
  L 647.48 732.36
  A 0.34 0.34 0.0 0 0 647.14 732.02
  L 644.68 732.02
  Z
  M 652.99 740.88
  A 0.40 0.40 0.0 0 0 653.09 741.14
  L 655.30 743.62
  A 0.40 0.40 0.0 0 0 656.00 743.35
  L 655.98 732.41
  A 0.40 0.40 0.0 0 0 655.58 732.01
  L 653.42 731.99
  A 0.40 0.40 0.0 0 0 653.02 732.39
  L 652.99 740.88
  Z
  M 661.26 749.20
  A 0.34 0.34 0.0 0 0 661.36 749.44
  L 665.19 753.40
  A 0.34 0.34 0.0 0 0 665.78 753.16
  L 665.73 732.36
  A 0.34 0.34 0.0 0 0 665.39 732.02
  L 661.58 731.99
  A 0.34 0.34 0.0 0 0 661.24 732.33
  L 661.26 749.20
  Z
  M 535.13 772.87
  Q 535.20 752.89 535.11 732.83
  Q 535.11 732.68 534.97 732.68
  L 534.96 732.68
  Q 534.79 732.68 534.79 732.85
  Q 534.74 752.75 534.76 772.89
  Q 534.76 773.07 534.93 773.07
  L 534.94 773.07
  Q 535.13 773.07 535.13 772.87
  Z
  M 647.49 743.66
  A 0.31 0.31 0.0 0 0 647.40 743.44
  L 643.72 739.63
  A 0.31 0.31 0.0 0 0 643.18 739.84
  L 643.28 760.19
  A 0.31 0.31 0.0 0 0 643.59 760.50
  L 647.20 760.49
  A 0.31 0.31 0.0 0 0 647.51 760.18
  L 647.49 743.66
  Z
  M 656.00 752.13
  A 0.32 0.32 0.0 0 0 655.91 751.91
  L 653.56 749.51
  A 0.32 0.32 0.0 0 0 653.01 749.73
  L 653.00 760.18
  A 0.32 0.32 0.0 0 0 653.32 760.50
  L 655.68 760.50
  A 0.32 0.32 0.0 0 0 656.00 760.18
  L 656.00 752.13
  Z
  M 661.99 758.00
  Q 661.95 757.82 661.80 757.73
  Q 661.28 757.37 661.27 758.01
  L 661.25 760.00
  Q 661.24 760.51 661.75 760.50
  L 663.69 760.50
  Q 664.38 760.49 663.94 759.95
  Q 663.15 758.99 662.13 758.22
  Q 662.02 758.13 661.99 758.00
  Z
  M 647.4841 766.2463
  A 0.50 0.50 0.0 0 0 646.9832 765.7472
  L 643.7432 765.7528
  A 0.50 0.50 0.0 0 0 643.2441 766.2537
  L 643.2559 772.9937
  A 0.50 0.50 0.0 0 0 643.7568 773.4928
  L 646.9968 773.4872
  A 0.50 0.50 0.0 0 0 647.4959 772.9863
  L 647.4841 766.2463
  Z
  M 656.0060 766.1826
  A 0.44 0.44 0.0 0 0 655.5668 765.7419
  L 653.4468 765.7382
  A 0.44 0.44 0.0 0 0 653.0060 766.1774
  L 652.9940 773.0374
  A 0.44 0.44 0.0 0 0 653.4332 773.4781
  L 655.5532 773.4818
  A 0.44 0.44 0.0 0 0 655.9940 773.0426
  L 656.0060 766.1826
  Z
  M 665.7561 766.1239
  A 0.36 0.36 0.0 0 0 665.3968 765.7633
  L 661.6168 765.7567
  A 0.36 0.36 0.0 0 0 661.2561 766.1161
  L 661.2439 773.1361
  A 0.36 0.36 0.0 0 0 661.6032 773.4967
  L 665.3832 773.5033
  A 0.36 0.36 0.0 0 0 665.7439 773.1439
  L 665.7561 766.1239
  Z
  M 529.4455 795.4070
  A 1.13 1.13 0.0 0 0 528.3135 794.2790
  L 527.0935 794.2811
  A 1.13 1.13 0.0 0 0 525.9655 795.4131
  L 526.0345 834.9330
  A 1.13 1.13 0.0 0 0 527.1665 836.0610
  L 528.3865 836.0589
  A 1.13 1.13 0.0 0 0 529.5145 834.9269
  L 529.4455 795.4070
  Z
  M 493.8203 795.2333
  A 0.86 0.86 0.0 0 0 492.9574 794.3763
  L 490.7574 794.3840
  A 0.86 0.86 0.0 0 0 489.9004 795.2470
  L 490.0397 835.1467
  A 0.86 0.86 0.0 0 0 490.9026 836.0037
  L 493.1026 835.9960
  A 0.86 0.86 0.0 0 0 493.9596 835.1330
  L 493.8203 795.2333
  Z
  M 655.9373 795.6474
  A 1.38 1.38 0.0 0 0 654.5453 794.2795
  L 654.3853 794.2808
  A 1.38 1.38 0.0 0 0 653.0174 795.6728
  L 653.0627 800.8726
  A 1.38 1.38 0.0 0 0 654.4547 802.2405
  L 654.6147 802.2392
  A 1.38 1.38 0.0 0 0 655.9826 800.8472
  L 655.9373 795.6474
  Z
  M 414.26 794.92
  A 0.41 0.41 0.0 0 0 413.85 794.51
  L 410.41 794.51
  A 0.41 0.41 0.0 0 0 410.00 794.92
  L 410.00 835.60
  A 0.41 0.41 0.0 0 0 410.41 836.01
  L 413.85 836.01
  A 0.41 0.41 0.0 0 0 414.26 835.60
  L 414.26 794.92
  Z
  M 431.50 794.85
  A 0.35 0.35 0.0 0 0 431.15 794.50
  L 420.09 794.50
  A 0.35 0.35 0.0 0 0 419.74 794.85
  L 419.74 835.65
  A 0.35 0.35 0.0 0 0 420.09 836.00
  L 431.15 836.00
  A 0.35 0.35 0.0 0 0 431.50 835.65
  L 431.50 794.85
  Z
  M 457.00 794.83
  A 0.33 0.33 0.0 0 0 456.67 794.50
  L 452.83 794.50
  A 0.33 0.33 0.0 0 0 452.50 794.83
  L 452.50 835.67
  A 0.33 0.33 0.0 0 0 452.83 836.00
  L 456.67 836.00
  A 0.33 0.33 0.0 0 0 457.00 835.67
  L 457.00 794.83
  Z
  M 467.25 794.87
  A 0.37 0.37 0.0 0 0 466.88 794.50
  L 462.62 794.50
  A 0.37 0.37 0.0 0 0 462.25 794.87
  L 462.25 835.63
  A 0.37 0.37 0.0 0 0 462.62 836.00
  L 466.88 836.00
  A 0.37 0.37 0.0 0 0 467.25 835.63
  L 467.25 794.87
  Z
  M 484.50 794.86
  A 0.36 0.36 0.0 0 0 484.14 794.50
  L 473.10 794.50
  A 0.36 0.36 0.0 0 0 472.74 794.86
  L 472.74 835.64
  A 0.36 0.36 0.0 0 0 473.10 836.00
  L 484.14 836.00
  A 0.36 0.36 0.0 0 0 484.50 835.64
  L 484.50 794.86
  Z
  M 520.50 795.07
  A 0.57 0.57 0.0 0 0 519.93 794.50
  L 515.57 794.50
  A 0.57 0.57 0.0 0 0 515.00 795.07
  L 515.00 835.43
  A 0.57 0.57 0.0 0 0 515.57 836.00
  L 519.93 836.00
  A 0.57 0.57 0.0 0 0 520.50 835.43
  L 520.50 795.07
  Z
  M 564.00 794.83
  A 0.33 0.33 0.0 0 0 563.67 794.50
  L 557.07 794.50
  A 0.33 0.33 0.0 0 0 556.74 794.83
  L 556.74 835.67
  A 0.33 0.33 0.0 0 0 557.07 836.00
  L 563.67 836.00
  A 0.33 0.33 0.0 0 0 564.00 835.67
  L 564.00 794.83
  Z
  M 577.25 794.86
  A 0.36 0.36 0.0 0 0 576.89 794.50
  L 569.85 794.50
  A 0.36 0.36 0.0 0 0 569.49 794.86
  L 569.49 835.64
  A 0.36 0.36 0.0 0 0 569.85 836.00
  L 576.89 836.00
  A 0.36 0.36 0.0 0 0 577.25 835.64
  L 577.25 794.86
  Z
  M 623.00 794.85
  A 0.35 0.35 0.0 0 0 622.65 794.50
  L 598.59 794.50
  A 0.35 0.35 0.0 0 0 598.24 794.85
  L 598.24 835.65
  A 0.35 0.35 0.0 0 0 598.59 836.00
  L 622.65 836.00
  A 0.35 0.35 0.0 0 0 623.00 835.65
  L 623.00 794.85
  Z
  M 637.75 794.88
  A 0.38 0.38 0.0 0 0 637.37 794.50
  L 635.13 794.50
  A 0.38 0.38 0.0 0 0 634.75 794.88
  L 634.75 801.62
  A 0.38 0.38 0.0 0 0 635.13 802.00
  L 637.37 802.00
  A 0.38 0.38 0.0 0 0 637.75 801.62
  L 637.75 794.88
  Z
  M 647.4931 794.9848
  A 0.39 0.39 0.0 0 0 647.1059 794.5921
  L 643.6659 794.5681
  A 0.39 0.39 0.0 0 0 643.2732 794.9554
  L 643.2269 801.5952
  A 0.39 0.39 0.0 0 0 643.6141 801.9879
  L 647.0541 802.0119
  A 0.39 0.39 0.0 0 0 647.4468 801.6246
  L 647.4931 794.9848
  Z
  M 535.15 795.33
  A 0.19 0.19 0.0 0 0 534.96 795.14
  L 534.96 795.14
  A 0.19 0.19 0.0 0 0 534.77 795.33
  L 534.77 835.53
  A 0.19 0.19 0.0 0 0 534.96 835.72
  L 534.96 835.72
  A 0.19 0.19 0.0 0 0 535.15 835.53
  L 535.15 795.33
  Z
  M 662.38 800.09
  L 662.19 799.83
  Q 661.75 799.23 661.47 799.92
  Q 661.13 800.76 661.48 801.45
  Q 661.67 801.83 662.11 801.90
  Q 662.74 802.02 663.33 801.94
  Q 663.96 801.86 663.64 801.32
  Q 663.33 800.81 662.81 800.48
  Q 662.56 800.32 662.38 800.09
  Z
  M 652.99 824.36
  A 0.35 0.35 0.0 0 0 653.09 824.60
  L 655.41 826.97
  A 0.35 0.35 0.0 0 0 656.01 826.72
  L 655.96 807.71
  A 0.35 0.35 0.0 0 0 655.62 807.36
  L 653.39 807.33
  A 0.35 0.35 0.0 0 0 653.04 807.68
  L 652.99 824.36
  Z
  M 643.26 814.55
  A 0.41 0.41 0.0 0 0 643.38 814.84
  L 646.80 818.35
  A 0.41 0.41 0.0 0 0 647.51 818.06
  L 647.49 807.93
  A 0.41 0.41 0.0 0 0 647.08 807.52
  L 643.66 807.49
  A 0.41 0.41 0.0 0 0 643.25 807.90
  L 643.26 814.55
  Z
  M 661.25 832.39
  A 0.83 0.83 0.0 0 0 661.49 832.97
  L 664.37 835.88
  A 0.83 0.83 0.0 0 0 665.79 835.30
  L 665.66 808.41
  A 0.83 0.83 0.0 0 0 664.87 807.59
  L 662.13 807.47
  A 0.83 0.83 0.0 0 0 661.26 808.30
  L 661.25 832.39
  Z
  M 637.40 835.97
  A 0.35 0.35 0.0 0 0 637.75 835.62
  L 637.75 817.49
  A 0.35 0.35 0.0 0 0 637.66 817.25
  L 635.34 814.73
  A 0.35 0.35 0.0 0 0 634.73 814.97
  L 634.75 835.66
  A 0.35 0.35 0.0 0 0 635.10 836.01
  L 637.40 835.97
  Z
  M 647.49 827.16
  A 0.32 0.32 0.0 0 0 647.40 826.94
  L 643.78 823.24
  A 0.32 0.32 0.0 0 0 643.23 823.47
  L 643.25 835.69
  A 0.32 0.32 0.0 0 0 643.57 836.01
  L 647.18 835.99
  A 0.32 0.32 0.0 0 0 647.50 835.67
  L 647.49 827.16
  Z
  M 653.44 833.00
  A 0.33 0.33 0.0 0 0 652.88 833.25
  L 653.03 835.70
  A 0.33 0.33 0.0 0 0 653.37 836.01
  L 655.68 835.97
  A 0.33 0.33 0.0 0 0 655.91 835.41
  L 653.44 833.00
  Z
  M 493.96 857.73
  A 0.78 0.78 0.0 0 0 493.18 856.95
  L 490.82 856.95
  A 0.78 0.78 0.0 0 0 490.04 857.73
  L 490.04 897.75
  A 0.78 0.78 0.0 0 0 490.82 898.53
  L 493.18 898.53
  A 0.78 0.78 0.0 0 0 493.96 897.75
  L 493.96 857.73
  Z
  M 529.4448 857.5470
  A 0.60 0.60 0.0 0 0 528.8437 856.9480
  L 526.5637 856.9520
  A 0.60 0.60 0.0 0 0 525.9648 857.5531
  L 526.0352 897.9130
  A 0.60 0.60 0.0 0 0 526.6363 898.5120
  L 528.9163 898.5080
  A 0.60 0.60 0.0 0 0 529.5152 897.9069
  L 529.4448 857.5470
  Z
  M 414.26 857.32
  A 0.32 0.32 0.0 0 0 413.94 857.00
  L 410.32 857.00
  A 0.32 0.32 0.0 0 0 410.00 857.32
  L 410.00 898.18
  A 0.32 0.32 0.0 0 0 410.32 898.50
  L 413.94 898.50
  A 0.32 0.32 0.0 0 0 414.26 898.18
  L 414.26 857.32
  Z
  M 431.50 857.50
  A 0.50 0.50 0.0 0 0 431.00 857.00
  L 420.24 857.00
  A 0.50 0.50 0.0 0 0 419.74 857.50
  L 419.74 898.00
  A 0.50 0.50 0.0 0 0 420.24 898.50
  L 431.00 898.50
  A 0.50 0.50 0.0 0 0 431.50 898.00
  L 431.50 857.50
  Z
  M 457.00 857.51
  A 0.50 0.50 0.0 0 0 456.50 857.01
  L 453.00 857.01
  A 0.50 0.50 0.0 0 0 452.50 857.51
  L 452.50 897.99
  A 0.50 0.50 0.0 0 0 453.00 898.49
  L 456.50 898.49
  A 0.50 0.50 0.0 0 0 457.00 897.99
  L 457.00 857.51
  Z
  M 467.25 857.36
  A 0.36 0.36 0.0 0 0 466.89 857.00
  L 462.61 857.00
  A 0.36 0.36 0.0 0 0 462.25 857.36
  L 462.25 898.14
  A 0.36 0.36 0.0 0 0 462.61 898.50
  L 466.89 898.50
  A 0.36 0.36 0.0 0 0 467.25 898.14
  L 467.25 857.36
  Z
  M 484.50 857.51
  A 0.51 0.51 0.0 0 0 483.99 857.00
  L 473.25 857.00
  A 0.51 0.51 0.0 0 0 472.74 857.51
  L 472.74 897.99
  A 0.51 0.51 0.0 0 0 473.25 898.50
  L 483.99 898.50
  A 0.51 0.51 0.0 0 0 484.50 897.99
  L 484.50 857.51
  Z
  M 520.50 857.59
  A 0.59 0.59 0.0 0 0 519.91 857.00
  L 515.59 857.00
  A 0.59 0.59 0.0 0 0 515.00 857.59
  L 515.00 897.91
  A 0.59 0.59 0.0 0 0 515.59 898.50
  L 519.91 898.50
  A 0.59 0.59 0.0 0 0 520.50 897.91
  L 520.50 857.59
  Z
  M 564.00 857.40
  A 0.40 0.40 0.0 0 0 563.60 857.00
  L 557.14 857.00
  A 0.40 0.40 0.0 0 0 556.74 857.40
  L 556.74 898.10
  A 0.40 0.40 0.0 0 0 557.14 898.50
  L 563.60 898.50
  A 0.40 0.40 0.0 0 0 564.00 898.10
  L 564.00 857.40
  Z
  M 577.25 857.30
  A 0.30 0.30 0.0 0 0 576.95 857.00
  L 569.79 857.00
  A 0.30 0.30 0.0 0 0 569.49 857.30
  L 569.49 898.20
  A 0.30 0.30 0.0 0 0 569.79 898.50
  L 576.95 898.50
  A 0.30 0.30 0.0 0 0 577.25 898.20
  L 577.25 857.30
  Z
  M 623.00 857.39
  A 0.39 0.39 0.0 0 0 622.61 857.00
  L 598.63 857.00
  A 0.39 0.39 0.0 0 0 598.24 857.39
  L 598.24 898.11
  A 0.39 0.39 0.0 0 0 598.63 898.50
  L 622.61 898.50
  A 0.39 0.39 0.0 0 0 623.00 898.11
  L 623.00 857.39
  Z
  M 637.74 858.88
  A 0.65 0.65 0.0 0 0 637.50 858.38
  L 635.80 856.99
  A 0.65 0.65 0.0 0 0 634.74 857.50
  L 634.76 884.95
  A 0.65 0.65 0.0 0 0 635.45 885.60
  L 637.15 885.50
  A 0.65 0.65 0.0 0 0 637.76 884.86
  L 637.74 858.88
  Z
  M 644.68 857.02
  A 0.34 0.34 0.0 0 0 644.45 857.60
  L 646.95 860.06
  A 0.34 0.34 0.0 0 0 647.53 859.81
  L 647.48 857.36
  A 0.34 0.34 0.0 0 0 647.14 857.02
  L 644.68 857.02
  Z
  M 652.98 865.85
  A 0.42 0.42 0.0 0 0 653.09 866.13
  L 655.26 868.60
  A 0.42 0.42 0.0 0 0 656.00 868.32
  L 655.98 857.49
  A 0.42 0.42 0.0 0 0 655.58 857.07
  L 653.49 856.97
  A 0.42 0.42 0.0 0 0 653.05 857.39
  L 652.98 865.85
  Z
  M 661.26 874.20
  A 0.34 0.34 0.0 0 0 661.36 874.44
  L 665.19 878.40
  A 0.34 0.34 0.0 0 0 665.78 878.16
  L 665.73 857.36
  A 0.34 0.34 0.0 0 0 665.39 857.02
  L 661.58 856.99
  A 0.34 0.34 0.0 0 0 661.24 857.33
  L 661.26 874.20
  Z
  M 535.15 857.74
  A 0.19 0.19 0.0 0 0 534.96 857.55
  L 534.96 857.55
  A 0.19 0.19 0.0 0 0 534.77 857.74
  L 534.77 897.94
  A 0.19 0.19 0.0 0 0 534.96 898.13
  L 534.96 898.13
  A 0.19 0.19 0.0 0 0 535.15 897.94
  L 535.15 857.74
  Z
  M 647.49 868.67
  A 0.30 0.30 0.0 0 0 647.41 868.46
  L 643.71 864.61
  A 0.30 0.30 0.0 0 0 643.19 864.82
  L 643.27 885.20
  A 0.30 0.30 0.0 0 0 643.57 885.50
  L 647.20 885.49
  A 0.30 0.30 0.0 0 0 647.50 885.19
  L 647.49 868.67
  Z
  M 656.00 877.14
  A 0.32 0.32 0.0 0 0 655.91 876.92
  L 653.56 874.50
  A 0.32 0.32 0.0 0 0 653.01 874.72
  L 653.00 885.18
  A 0.32 0.32 0.0 0 0 653.32 885.50
  L 655.68 885.51
  A 0.32 0.32 0.0 0 0 656.00 885.19
  L 656.00 877.14
  Z
  M 663.74 885.51
  A 0.32 0.32 0.0 0 0 663.97 884.97
  L 661.78 882.72
  A 0.32 0.32 0.0 0 0 661.23 882.96
  L 661.31 885.16
  A 0.32 0.32 0.0 0 0 661.62 885.47
  L 663.74 885.51
  Z
  M 647.4780 891.1826
  A 0.45 0.45 0.0 0 0 647.0265 890.7342
  L 643.6865 890.7459
  A 0.45 0.45 0.0 0 0 643.2381 891.1974
  L 643.2620 898.0374
  A 0.45 0.45 0.0 0 0 643.7135 898.4858
  L 647.0535 898.4741
  A 0.45 0.45 0.0 0 0 647.5019 898.0226
  L 647.4780 891.1826
  Z
  M 656.0060 891.1726
  A 0.43 0.43 0.0 0 0 655.5768 890.7419
  L 653.4368 890.7381
  A 0.43 0.43 0.0 0 0 653.0060 891.1674
  L 652.9940 898.0474
  A 0.43 0.43 0.0 0 0 653.4232 898.4781
  L 655.5632 898.4819
  A 0.43 0.43 0.0 0 0 655.9940 898.0526
  L 656.0060 891.1726
  Z
  M 665.7561 891.1239
  A 0.36 0.36 0.0 0 0 665.3968 890.7633
  L 661.6168 890.7567
  A 0.36 0.36 0.0 0 0 661.2561 891.1161
  L 661.2439 898.1361
  A 0.36 0.36 0.0 0 0 661.6032 898.4967
  L 665.3832 898.5033
  A 0.36 0.36 0.0 0 0 665.7439 898.1439
  L 665.7561 891.1239
  Z
  M 655.9805 920.4948
  A 1.17 1.17 0.0 0 0 654.8064 919.3289
  L 654.1664 919.3311
  A 1.17 1.17 0.0 0 0 653.0005 920.5052
  L 653.0195 925.9652
  A 1.17 1.17 0.0 0 0 654.1936 927.1311
  L 654.8336 927.1289
  A 1.17 1.17 0.0 0 0 655.9995 925.9548
  L 655.9805 920.4948
  Z
  M 414.24 919.93
  A 0.42 0.42 0.0 0 0 413.82 919.51
  L 410.42 919.51
  A 0.42 0.42 0.0 0 0 410.00 919.93
  L 410.00 932.35
  A 0.42 0.42 0.0 0 0 410.42 932.77
  L 413.82 932.77
  A 0.42 0.42 0.0 0 0 414.24 932.35
  L 414.24 919.93
  Z
  M 431.5216 919.9506
  A 0.42 0.42 0.0 0 0 431.1031 919.5291
  L 420.1631 919.4909
  A 0.42 0.42 0.0 0 0 419.7417 919.9095
  L 419.6984 932.3094
  A 0.42 0.42 0.0 0 0 420.1169 932.7309
  L 431.0569 932.7691
  A 0.42 0.42 0.0 0 0 431.4783 932.3505
  L 431.5216 919.9506
  Z
  M 623.00 919.91
  A 0.42 0.42 0.0 0 0 622.58 919.49
  L 598.66 919.49
  A 0.42 0.42 0.0 0 0 598.24 919.91
  L 598.24 932.33
  A 0.42 0.42 0.0 0 0 598.66 932.75
  L 622.58 932.75
  A 0.42 0.42 0.0 0 0 623.00 932.33
  L 623.00 919.91
  Z
  M 637.75 919.88
  A 0.37 0.37 0.0 0 0 637.38 919.51
  L 635.12 919.51
  A 0.37 0.37 0.0 0 0 634.75 919.88
  L 634.75 926.62
  A 0.37 0.37 0.0 0 0 635.12 926.99
  L 637.38 926.99
  A 0.37 0.37 0.0 0 0 637.75 926.62
  L 637.75 919.88
  Z
  M 647.5356 919.8826
  A 0.33 0.33 0.0 0 0 647.2091 919.5492
  L 643.5893 919.5113
  A 0.33 0.33 0.0 0 0 643.2558 919.8378
  L 643.1844 926.6574
  A 0.33 0.33 0.0 0 0 643.5109 926.9908
  L 647.1307 927.0287
  A 0.33 0.33 0.0 0 0 647.4642 926.7022
  L 647.5356 919.8826
  Z
  M 663.67 926.30
  L 661.99 924.69
  Q 661.43 924.16 661.36 924.93
  L 661.24 926.04
  Q 661.19 926.57 661.68 926.78
  Q 662.52 927.15 663.50 926.92
  Q 664.15 926.77 663.67 926.30
  Z
  M 414.2533 938.7074
  A 0.44 0.44 0.0 0 0 413.8148 938.2659
  L 410.4548 938.2542
  A 0.44 0.44 0.0 0 0 410.0133 938.6926
  L 409.9867 946.3126
  A 0.44 0.44 0.0 0 0 410.4252 946.7541
  L 413.7852 946.7658
  A 0.44 0.44 0.0 0 0 414.2267 946.3274
  L 414.2533 938.7074
  Z
  M 431.49 938.61
  A 0.36 0.36 0.0 0 0 431.13 938.25
  L 420.11 938.25
  A 0.36 0.36 0.0 0 0 419.75 938.61
  L 419.75 946.39
  A 0.36 0.36 0.0 0 0 420.11 946.75
  L 431.13 946.75
  A 0.36 0.36 0.0 0 0 431.49 946.39
  L 431.49 938.61
  Z
  M 623.00 938.61
  A 0.36 0.36 0.0 0 0 622.64 938.25
  L 598.60 938.25
  A 0.36 0.36 0.0 0 0 598.24 938.61
  L 598.24 946.39
  A 0.36 0.36 0.0 0 0 598.60 946.75
  L 622.64 946.75
  A 0.36 0.36 0.0 0 0 623.00 946.39
  L 623.00 938.61
  Z
  M 646.93 943.37
  A 0.31 0.30 20.9 0 0 647.44 943.15
  L 647.52 939.39
  Q 647.54 938.24 646.39 938.25
  L 643.77 938.26
  Q 642.52 938.26 643.21 939.30
  Q 644.66 941.46 646.93 943.37
  Z
  M 656.0134 938.6753
  A 0.42 0.42 0.0 0 0 655.5948 938.2538
  L 653.4348 938.2463
  A 0.42 0.42 0.0 0 0 653.0134 938.6648
  L 652.9866 946.3247
  A 0.42 0.42 0.0 0 0 653.4052 946.7462
  L 655.5652 946.7537
  A 0.42 0.42 0.0 0 0 655.9866 946.3352
  L 656.0134 938.6753
  Z
  M 665.7568 938.6339
  A 0.38 0.38 0.0 0 0 665.3774 938.2533
  L 661.6374 938.2467
  A 0.38 0.38 0.0 0 0 661.2568 938.6261
  L 661.2432 946.3661
  A 0.38 0.38 0.0 0 0 661.6226 946.7467
  L 665.3626 946.7533
  A 0.38 0.38 0.0 0 0 665.7432 946.3739
  L 665.7568 938.6339
  Z
  M 634.93 939.41
  A 0.10 0.10 0.0 0 0 634.76 939.48
  L 634.74 946.26
  A 0.51 0.51 0.0 0 0 635.26 946.77
  L 637.28 946.72
  Q 637.77 946.71 637.76 946.22
  L 637.74 942.41
  Q 637.74 942.29 637.65 942.20
  L 634.93 939.41
  Z
  M 414.1682 952.6281
  A 0.39 0.39 0.0 0 0 413.7741 952.2422
  L 410.3343 952.2783
  A 0.39 0.39 0.0 0 0 409.9484 952.6723
  L 410.0318 960.6319
  A 0.39 0.39 0.0 0 0 410.4259 961.0178
  L 413.8657 960.9817
  A 0.39 0.39 0.0 0 0 414.2516 960.5877
  L 414.1682 952.6281
  Z
  M 431.49 952.67
  A 0.42 0.42 0.0 0 0 431.07 952.25
  L 420.17 952.25
  A 0.42 0.42 0.0 0 0 419.75 952.67
  L 419.75 960.57
  A 0.42 0.42 0.0 0 0 420.17 960.99
  L 431.07 960.99
  A 0.42 0.42 0.0 0 0 431.49 960.57
  L 431.49 952.67
  Z
  M 623.00 952.53
  A 0.29 0.29 0.0 0 0 622.71 952.24
  L 598.53 952.24
  A 0.29 0.29 0.0 0 0 598.24 952.53
  L 598.24 960.71
  A 0.29 0.29 0.0 0 0 598.53 961.00
  L 622.71 961.00
  A 0.29 0.29 0.0 0 0 623.00 960.71
  L 623.00 952.53
  Z
  M 637.75 952.64
  A 0.38 0.38 0.0 0 0 637.37 952.26
  L 635.13 952.26
  A 0.38 0.38 0.0 0 0 634.75 952.64
  L 634.75 960.62
  A 0.38 0.38 0.0 0 0 635.13 961.00
  L 637.37 961.00
  A 0.38 0.38 0.0 0 0 637.75 960.62
  L 637.75 952.64
  Z
  M 647.4752 952.6214
  A 0.39 0.39 0.0 0 0 647.0818 952.2348
  L 643.5619 952.2655
  A 0.39 0.39 0.0 0 0 643.1754 952.6589
  L 643.2448 960.6186
  A 0.39 0.39 0.0 0 0 643.6382 961.0052
  L 647.1581 960.9745
  A 0.39 0.39 0.0 0 0 647.5446 960.5811
  L 647.4752 952.6214
  Z
  M 661.30 957.53
  A 0.74 0.74 0.0 0 0 661.52 958.04
  L 664.50 960.96
  A 0.74 0.74 0.0 0 0 665.76 960.43
  L 665.75 952.98
  A 0.74 0.74 0.0 0 0 665.00 952.24
  L 661.89 952.27
  A 0.74 0.74 0.0 0 0 661.15 953.04
  L 661.30 957.53
  Z
  M 653.44 958.01
  A 0.33 0.33 0.0 0 0 652.88 958.26
  L 653.00 960.70
  A 0.33 0.33 0.0 0 0 653.34 961.02
  L 655.69 960.98
  A 0.33 0.33 0.0 0 0 655.92 960.41
  L 653.44 958.01
  Z
  M 414.25 982.38
  A 0.39 0.39 0.0 0 0 413.86 981.99
  L 410.38 981.99
  A 0.39 0.39 0.0 0 0 409.99 982.38
  L 409.99 1007.86
  A 0.39 0.39 0.0 0 0 410.38 1008.25
  L 413.86 1008.25
  A 0.39 0.39 0.0 0 0 414.25 1007.86
  L 414.25 982.38
  Z
  M 431.50 982.39
  A 0.39 0.39 0.0 0 0 431.11 982.00
  L 420.13 982.00
  A 0.39 0.39 0.0 0 0 419.74 982.39
  L 419.74 1007.87
  A 0.39 0.39 0.0 0 0 420.13 1008.26
  L 431.11 1008.26
  A 0.39 0.39 0.0 0 0 431.50 1007.87
  L 431.50 982.39
  Z
  M 623.00 982.40
  A 0.39 0.39 0.0 0 0 622.61 982.01
  L 598.63 982.01
  A 0.39 0.39 0.0 0 0 598.24 982.40
  L 598.24 1007.86
  A 0.39 0.39 0.0 0 0 598.63 1008.25
  L 622.61 1008.25
  A 0.39 0.39 0.0 0 0 623.00 1007.86
  L 623.00 982.40
  Z
  M 637.74 983.99
  A 0.74 0.74 0.0 0 0 637.50 983.45
  L 636.00 982.05
  A 0.74 0.74 0.0 0 0 634.76 982.59
  L 634.70 1007.52
  A 0.74 0.74 0.0 0 0 635.44 1008.26
  L 637.01 1008.28
  A 0.74 0.74 0.0 0 0 637.76 1007.53
  L 637.74 983.99
  Z
  M 644.68 982.02
  A 0.34 0.34 0.0 0 0 644.44 982.60
  L 646.95 985.07
  A 0.34 0.34 0.0 0 0 647.53 984.82
  L 647.48 982.35
  A 0.34 0.34 0.0 0 0 647.14 982.02
  L 644.68 982.02
  Z
  M 653.00 990.87
  A 0.40 0.40 0.0 0 0 653.10 991.13
  L 655.30 993.61
  A 0.40 0.40 0.0 0 0 656.00 993.35
  L 655.99 982.43
  A 0.40 0.40 0.0 0 0 655.60 982.03
  L 653.42 982.00
  A 0.40 0.40 0.0 0 0 653.01 982.40
  L 653.00 990.87
  Z
  M 661.26 999.19
  A 0.34 0.34 0.0 0 0 661.36 999.43
  L 665.19 1003.40
  A 0.34 0.34 0.0 0 0 665.78 1003.17
  L 665.73 982.36
  A 0.34 0.34 0.0 0 0 665.39 982.02
  L 661.58 981.99
  A 0.34 0.34 0.0 0 0 661.24 982.33
  L 661.26 999.19
  Z
  M 647.50 993.65
  A 0.31 0.31 0.0 0 0 647.41 993.43
  L 643.66 989.63
  A 0.31 0.31 0.0 0 0 643.13 989.85
  L 643.29 1007.97
  A 0.31 0.31 0.0 0 0 643.60 1008.27
  L 647.19 1008.22
  A 0.31 0.31 0.0 0 0 647.49 1007.91
  L 647.50 993.65
  Z
  M 656.00 1002.12
  A 0.32 0.32 0.0 0 0 655.91 1001.90
  L 653.49 999.46
  A 0.32 0.32 0.0 0 0 652.95 999.69
  L 653.03 1007.96
  A 0.32 0.32 0.0 0 0 653.35 1008.27
  L 655.68 1008.22
  A 0.32 0.32 0.0 0 0 655.99 1007.90
  L 656.00 1002.12
  Z
  M 414.26 1014.18
  A 0.42 0.42 0.0 0 0 413.84 1013.76
  L 410.42 1013.76
  A 0.42 0.42 0.0 0 0 410.00 1014.18
  L 410.00 1064.58
  A 0.42 0.42 0.0 0 0 410.42 1065.00
  L 413.84 1065.00
  A 0.42 0.42 0.0 0 0 414.26 1064.58
  L 414.26 1014.18
  Z
  M 431.50 1014.02
  A 0.27 0.27 0.0 0 0 431.23 1013.75
  L 420.01 1013.75
  A 0.27 0.27 0.0 0 0 419.74 1014.02
  L 419.74 1064.72
  A 0.27 0.27 0.0 0 0 420.01 1064.99
  L 431.23 1064.99
  A 0.27 0.27 0.0 0 0 431.50 1064.72
  L 431.50 1014.02
  Z
  M 623.00 1014.07
  A 0.33 0.33 0.0 0 0 622.67 1013.74
  L 598.57 1013.74
  A 0.33 0.33 0.0 0 0 598.24 1014.07
  L 598.24 1064.67
  A 0.33 0.33 0.0 0 0 598.57 1065.00
  L 622.67 1065.00
  A 0.33 0.33 0.0 0 0 623.00 1064.67
  L 623.00 1014.07
  Z
  M 643.25 1022.63
  A 0.41 0.41 0.0 0 0 643.36 1022.91
  L 646.76 1026.56
  A 0.41 0.41 0.0 0 0 647.47 1026.28
  L 647.51 1016.15
  A 0.41 0.41 0.0 0 0 647.10 1015.74
  L 643.66 1015.74
  A 0.41 0.41 0.0 0 0 643.25 1016.15
  L 643.25 1022.63
  Z
  M 653.00 1032.45
  A 0.35 0.35 0.0 0 0 653.09 1032.69
  L 655.39 1035.20
  A 0.35 0.35 0.0 0 0 656.00 1034.97
  L 656.00 1016.08
  A 0.35 0.35 0.0 0 0 655.64 1015.73
  L 653.34 1015.78
  A 0.35 0.35 0.0 0 0 653.00 1016.13
  L 653.00 1032.45
  Z
  M 661.25 1040.60
  A 0.47 0.47 0.0 0 0 661.37 1040.91
  L 664.94 1044.81
  A 0.47 0.47 0.0 0 0 665.76 1044.49
  L 665.74 1016.24
  A 0.47 0.47 0.0 0 0 665.28 1015.77
  L 661.73 1015.73
  A 0.47 0.47 0.0 0 0 661.25 1016.20
  L 661.25 1040.60
  Z
  M 637.75 1025.53
  A 0.30 0.30 0.0 0 0 637.66 1025.32
  L 635.26 1022.85
  A 0.30 0.30 0.0 0 0 634.74 1023.06
  L 634.75 1049.22
  A 0.30 0.30 0.0 0 0 635.05 1049.52
  L 637.45 1049.48
  A 0.30 0.30 0.0 0 0 637.75 1049.18
  L 637.75 1025.53
  Z
  M 647.50 1035.27
  A 0.35 0.35 0.0 0 0 647.40 1035.03
  L 643.74 1031.37
  A 0.35 0.35 0.0 0 0 643.15 1031.62
  L 643.28 1049.16
  A 0.35 0.35 0.0 0 0 643.63 1049.51
  L 647.15 1049.49
  A 0.35 0.35 0.0 0 0 647.50 1049.14
  L 647.50 1035.27
  Z
  M 655.99 1043.83
  A 0.42 0.42 0.0 0 0 655.87 1043.54
  L 653.69 1041.31
  A 0.42 0.42 0.0 0 0 652.97 1041.61
  L 653.02 1049.08
  A 0.42 0.42 0.0 0 0 653.43 1049.50
  L 655.58 1049.52
  A 0.42 0.42 0.0 0 0 656.01 1049.10
  L 655.99 1043.83
  Z
  M 637.7426 1060.3739
  A 0.39 0.39 0.0 0 0 637.3512 1059.9852
  L 628.8713 1060.0148
  A 0.39 0.39 0.0 0 0 628.4827 1060.4062
  L 628.4974 1064.6261
  A 0.39 0.39 0.0 0 0 628.8888 1065.0148
  L 637.3687 1064.9852
  A 0.39 0.39 0.0 0 0 637.7573 1064.5938
  L 637.7426 1060.3739
  Z
  M 647.5132 1060.3025
  A 0.26 0.26 0.0 0 0 647.2560 1060.0398
  L 643.4962 1060.0004
  A 0.26 0.26 0.0 0 0 643.2335 1060.2577
  L 643.1868 1064.7175
  A 0.26 0.26 0.0 0 0 643.4440 1064.9802
  L 647.2038 1065.0196
  A 0.26 0.26 0.0 0 0 647.4665 1064.7623
  L 647.5132 1060.3025
  Z
  M 655.9847 1060.6592
  A 0.72 0.72 0.0 0 0 655.2547 1059.9494
  L 653.6949 1059.9711
  A 0.72 0.72 0.0 0 0 652.9850 1060.7011
  L 653.0353 1064.3008
  A 0.72 0.72 0.0 0 0 653.7653 1065.0106
  L 655.3251 1064.9889
  A 0.72 0.72 0.0 0 0 656.0350 1064.2589
  L 655.9847 1060.6592
  Z
  M 671.5032 1060.6889
  A 0.69 0.69 0.0 0 0 670.8144 1059.9977
  L 661.9544 1059.9823
  A 0.69 0.69 0.0 0 0 661.2632 1060.6711
  L 661.2568 1064.2911
  A 0.69 0.69 0.0 0 0 661.9456 1064.9823
  L 670.8056 1064.9977
  A 0.69 0.69 0.0 0 0 671.4968 1064.3089
  L 671.5032 1060.6889
  Z"
/>
</svg>
